<?xml version="1.0" encoding="UTF-8" standalone="no"?>
<!DOCTYPE svg PUBLIC "-//W3C//DTD SVG 1.1//EN"
 "http://www.w3.org/Graphics/SVG/1.1/DTD/svg11.dtd">
<!-- Generated by graphviz version 2.43.0 (0)
 -->
<!-- Title: %3 Pages: 1 -->
<svg width="1233pt" height="299pt"
 viewBox="0.00 0.00 1232.86 299.00" xmlns="http://www.w3.org/2000/svg" xmlns:xlink="http://www.w3.org/1999/xlink">
<g id="graph0" class="graph" transform="scale(1 1) rotate(0) translate(4 295)">
<title>%3</title>
<polygon fill="white" stroke="transparent" points="-4,4 -4,-295 1228.86,-295 1228.86,4 -4,4"/>
<!-- fake -->
<g id="node1" class="node">
<title>fake</title>
</g>
<!-- 3 -->
<g id="node4" class="node">
<title>3</title>
<ellipse fill="none" stroke="black" cx="273.86" cy="-200" rx="27" ry="18"/>
<text text-anchor="middle" x="273.86" y="-196.3" font-family="Times,serif" font-size="14.00">3</text>
</g>
<!-- fake&#45;&gt;3 -->
<g id="edge1" class="edge">
<title>fake&#45;&gt;3</title>
<path fill="none" stroke="black" stroke-width="2" d="M273.86,-254.81C273.86,-246.79 273.86,-237.05 273.86,-228.07"/>
<polygon fill="black" stroke="black" stroke-width="2" points="277.36,-228.03 273.86,-218.03 270.36,-228.03 277.36,-228.03"/>
</g>
<!-- 0 -->
<g id="node2" class="node">
<title>0</title>
<ellipse fill="none" stroke="black" cx="273.86" cy="-22" rx="18" ry="18"/>
<ellipse fill="none" stroke="black" cx="273.86" cy="-22" rx="22" ry="22"/>
<text text-anchor="middle" x="273.86" y="-18.3" font-family="Times,serif" font-size="14.00">0</text>
</g>
<!-- 0&#45;&gt;0 -->
<g id="edge2" class="edge">
<title>0&#45;&gt;0</title>
<path fill="none" stroke="black" d="M296.07,-23.48C305.65,-23.6 313.86,-23.11 313.86,-22 313.86,-21.32 310.81,-20.88 306.26,-20.66"/>
<polygon fill="black" stroke="black" points="306.12,-17.16 296.07,-20.52 306.02,-24.15 306.12,-17.16"/>
<text text-anchor="middle" x="386.36" y="-18.3" font-family="Times,serif" font-size="14.00">{bad_beep, orange}</text>
</g>
<!-- 0&#45;&gt;0 -->
<g id="edge3" class="edge">
<title>0&#45;&gt;0</title>
<path fill="none" stroke="black" d="M295.92,-23.74C346.32,-25.88 458.86,-25.3 458.86,-22 458.86,-18.91 359.94,-18.21 306.06,-19.89"/>
<polygon fill="black" stroke="black" points="305.79,-16.4 295.92,-20.26 306.05,-23.4 305.79,-16.4"/>
<text text-anchor="middle" x="550.86" y="-18.3" font-family="Times,serif" font-size="14.00">{bad_beep, gold, orange}</text>
</g>
<!-- 0&#45;&gt;0 -->
<g id="edge4" class="edge">
<title>0&#45;&gt;0</title>
<path fill="none" stroke="black" d="M295.89,-23.92C377.38,-27.91 642.86,-27.27 642.86,-22 642.86,-16.93 397.22,-16.14 305.98,-19.65"/>
<polygon fill="black" stroke="black" points="305.73,-16.16 295.89,-20.08 306.03,-23.15 305.73,-16.16"/>
<text text-anchor="middle" x="652.36" y="-18.3" font-family="Times,serif" font-size="14.00">{}</text>
</g>
<!-- 0&#45;&gt;0 -->
<g id="edge5" class="edge">
<title>0&#45;&gt;0</title>
<path fill="none" stroke="black" d="M295.76,-24.39C380.8,-29.9 661.86,-29.1 661.86,-22 661.86,-15.16 401.28,-14.17 306.01,-19.02"/>
<polygon fill="black" stroke="black" points="305.54,-15.54 295.76,-19.61 305.94,-22.53 305.54,-15.54"/>
<text text-anchor="middle" x="686.36" y="-18.3" font-family="Times,serif" font-size="14.00">{gold}</text>
</g>
<!-- 0&#45;&gt;0 -->
<g id="edge6" class="edge">
<title>0&#45;&gt;0</title>
<path fill="none" stroke="black" d="M295.95,-24.76C388.95,-31.89 710.86,-30.97 710.86,-22 710.86,-13.32 409.97,-12.18 305.95,-18.56"/>
<polygon fill="black" stroke="black" points="305.69,-15.06 295.95,-19.24 306.17,-22.05 305.69,-15.06"/>
<text text-anchor="middle" x="753.86" y="-18.3" font-family="Times,serif" font-size="14.00">{bad_beep}</text>
</g>
<!-- 0&#45;&gt;0 -->
<g id="edge7" class="edge">
<title>0&#45;&gt;0</title>
<path fill="none" stroke="black" d="M295.78,-24.97C400.36,-33.9 796.86,-32.91 796.86,-22 796.86,-11.42 424.01,-10.17 306.06,-18.24"/>
<polygon fill="black" stroke="black" points="305.48,-14.78 295.78,-19.03 306.01,-21.76 305.48,-14.78"/>
<text text-anchor="middle" x="850.86" y="-18.3" font-family="Times,serif" font-size="14.00">{gold, orange}</text>
</g>
<!-- 0&#45;&gt;0 -->
<g id="edge8" class="edge">
<title>0&#45;&gt;0</title>
<path fill="none" stroke="black" d="M295.75,-25.13C413.66,-35.91 904.86,-34.87 904.86,-22 904.86,-9.47 439.23,-8.16 305.84,-18.04"/>
<polygon fill="black" stroke="black" points="305.43,-14.57 295.75,-18.87 306.01,-21.54 305.43,-14.57"/>
<text text-anchor="middle" x="967.86" y="-18.3" font-family="Times,serif" font-size="14.00">{bad_beep, gold}</text>
</g>
<!-- 0&#45;&gt;0 -->
<g id="edge9" class="edge">
<title>0&#45;&gt;0</title>
<path fill="none" stroke="black" d="M295.89,-25.26C428.21,-37.91 1030.86,-36.83 1030.86,-22 1030.86,-7.52 456.13,-6.14 305.95,-17.87"/>
<polygon fill="black" stroke="black" points="305.55,-14.4 295.89,-18.74 306.15,-21.37 305.55,-14.4"/>
<text text-anchor="middle" x="1064.86" y="-18.3" font-family="Times,serif" font-size="14.00">{orange}</text>
</g>
<!-- 2 -->
<g id="node3" class="node">
<title>2</title>
<ellipse fill="none" stroke="black" cx="273.86" cy="-113" rx="27" ry="18"/>
<text text-anchor="middle" x="273.86" y="-109.3" font-family="Times,serif" font-size="14.00">2</text>
</g>
<!-- 2&#45;&gt;0 -->
<g id="edge11" class="edge">
<title>2&#45;&gt;0</title>
<path fill="none" stroke="black" d="M246.93,-110.5C181.78,-106.58 19.77,-95.11 3.86,-77 -28.39,-40.3 162.96,-27.78 241.43,-24.22"/>
<polygon fill="black" stroke="black" points="241.88,-27.71 251.71,-23.78 241.57,-20.72 241.88,-27.71"/>
<text text-anchor="middle" x="76.36" y="-65.8" font-family="Times,serif" font-size="14.00">{bad_beep, orange}</text>
</g>
<!-- 2&#45;&gt;0 -->
<g id="edge13" class="edge">
<title>2&#45;&gt;0</title>
<path fill="none" stroke="black" d="M246.63,-110.98C222.56,-108.47 188.72,-100.62 171.86,-77 151.74,-48.83 205.23,-34.09 242.14,-27.48"/>
<polygon fill="black" stroke="black" points="242.75,-30.93 252.03,-25.83 241.59,-24.02 242.75,-30.93"/>
<text text-anchor="middle" x="263.86" y="-65.8" font-family="Times,serif" font-size="14.00">{bad_beep, gold, orange}</text>
</g>
<!-- 2&#45;&gt;0 -->
<g id="edge14" class="edge">
<title>2&#45;&gt;0</title>
<path fill="none" stroke="black" d="M300.16,-108.44C319.17,-104.35 343.58,-95.6 355.86,-77 371.07,-53.97 334.24,-38.47 305.11,-30.19"/>
<polygon fill="black" stroke="black" points="305.79,-26.75 295.23,-27.56 303.99,-33.51 305.79,-26.75"/>
<text text-anchor="middle" x="412.86" y="-65.8" font-family="Times,serif" font-size="14.00">{gold, orange}</text>
</g>
<!-- 2&#45;&gt;0 -->
<g id="edge15" class="edge">
<title>2&#45;&gt;0</title>
<path fill="none" stroke="black" d="M301.01,-111.31C349.86,-109.43 449.5,-102.49 470.86,-77 475.14,-71.89 475.09,-67.15 470.86,-62 450.35,-37.04 356.3,-27.78 305.93,-24.57"/>
<polygon fill="black" stroke="black" points="306.08,-21.07 295.89,-23.97 305.66,-28.06 306.08,-21.07"/>
<text text-anchor="middle" x="507.86" y="-65.8" font-family="Times,serif" font-size="14.00">{orange}</text>
</g>
<!-- 2&#45;&gt;2 -->
<g id="edge10" class="edge">
<title>2&#45;&gt;2</title>
<path fill="none" stroke="black" d="M300.65,-116.93C310.64,-117.06 318.86,-115.75 318.86,-113 318.86,-111.28 315.65,-110.13 310.8,-109.53"/>
<polygon fill="black" stroke="black" points="310.8,-106.03 300.65,-109.07 310.48,-113.02 310.8,-106.03"/>
<text text-anchor="middle" x="328.36" y="-109.3" font-family="Times,serif" font-size="14.00">{}</text>
</g>
<!-- 2&#45;&gt;2 -->
<g id="edge12" class="edge">
<title>2&#45;&gt;2</title>
<path fill="none" stroke="black" d="M299.01,-119.9C318.22,-122.4 337.86,-120.1 337.86,-113 337.86,-107.18 324.64,-104.59 309.29,-105.22"/>
<polygon fill="black" stroke="black" points="308.67,-101.76 299.01,-106.1 309.27,-108.73 308.67,-101.76"/>
<text text-anchor="middle" x="380.86" y="-109.3" font-family="Times,serif" font-size="14.00">{bad_beep}</text>
</g>
<!-- 3&#45;&gt;2 -->
<g id="edge16" class="edge">
<title>3&#45;&gt;2</title>
<path fill="none" stroke="black" d="M246.46,-199.32C189.09,-199.33 59.37,-195.77 31.86,-164 27.5,-158.96 27.5,-154.04 31.86,-149 57.86,-118.96 175.21,-114.14 236.43,-113.72"/>
<polygon fill="black" stroke="black" points="236.47,-117.22 246.46,-113.68 236.45,-110.22 236.47,-117.22"/>
<text text-anchor="middle" x="123.86" y="-152.8" font-family="Times,serif" font-size="14.00">{bad_beep, gold, orange}</text>
</g>
<!-- 3&#45;&gt;2 -->
<g id="edge17" class="edge">
<title>3&#45;&gt;2</title>
<path fill="none" stroke="black" d="M256.22,-186.35C249.45,-180.42 242.48,-172.73 238.86,-164 234.41,-153.25 240.22,-142.52 248.3,-133.77"/>
<polygon fill="black" stroke="black" points="250.96,-136.07 255.79,-126.64 246.14,-131 250.96,-136.07"/>
<text text-anchor="middle" x="263.36" y="-152.8" font-family="Times,serif" font-size="14.00">{gold}</text>
</g>
<!-- 3&#45;&gt;2 -->
<g id="edge18" class="edge">
<title>3&#45;&gt;2</title>
<path fill="none" stroke="black" d="M281.89,-182.66C284.31,-176.9 286.65,-170.3 287.86,-164 289.38,-156.12 288.15,-147.68 285.9,-140.01"/>
<polygon fill="black" stroke="black" points="289.16,-138.74 282.5,-130.5 282.57,-141.1 289.16,-138.74"/>
<text text-anchor="middle" x="350.86" y="-152.8" font-family="Times,serif" font-size="14.00">{bad_beep, gold}</text>
</g>
<!-- 3&#45;&gt;2 -->
<g id="edge20" class="edge">
<title>3&#45;&gt;2</title>
<path fill="none" stroke="black" d="M300.61,-196.39C338.17,-192.11 403.55,-182.2 417.86,-164 447.47,-126.34 363.19,-116.94 311.29,-114.66"/>
<polygon fill="black" stroke="black" points="311.2,-111.16 301.08,-114.29 310.94,-118.15 311.2,-111.16"/>
<text text-anchor="middle" x="477.86" y="-152.8" font-family="Times,serif" font-size="14.00">{gold, orange}</text>
</g>
<!-- 3&#45;&gt;3 -->
<g id="edge19" class="edge">
<title>3&#45;&gt;3</title>
<path fill="none" stroke="black" d="M300.65,-203.37C310.64,-203.48 318.86,-202.36 318.86,-200 318.86,-198.53 315.65,-197.54 310.8,-197.03"/>
<polygon fill="black" stroke="black" points="310.78,-193.53 300.65,-196.63 310.51,-200.52 310.78,-193.53"/>
<text text-anchor="middle" x="328.36" y="-196.3" font-family="Times,serif" font-size="14.00">{}</text>
</g>
<!-- 3&#45;&gt;3 -->
<g id="edge21" class="edge">
<title>3&#45;&gt;3</title>
<path fill="none" stroke="black" d="M299.34,-205.95C318.45,-208.03 337.86,-206.05 337.86,-200 337.86,-195.04 324.8,-192.81 309.56,-193.32"/>
<polygon fill="black" stroke="black" points="309.07,-189.85 299.34,-194.05 309.56,-196.83 309.07,-189.85"/>
<text text-anchor="middle" x="380.86" y="-196.3" font-family="Times,serif" font-size="14.00">{bad_beep}</text>
</g>
</g>
</svg>
