<?xml version="1.0" encoding="UTF-8" standalone="no"?>
<!DOCTYPE svg PUBLIC "-//W3C//DTD SVG 1.1//EN"
 "http://www.w3.org/Graphics/SVG/1.1/DTD/svg11.dtd">
<!-- Generated by graphviz version 2.43.0 (0)
 -->
<!-- Title: %3 Pages: 1 -->
<svg width="1253pt" height="299pt"
 viewBox="0.00 0.00 1253.16 299.00" xmlns="http://www.w3.org/2000/svg" xmlns:xlink="http://www.w3.org/1999/xlink">
<g id="graph0" class="graph" transform="scale(1 1) rotate(0) translate(4 295)">
<title>%3</title>
<polygon fill="white" stroke="transparent" points="-4,4 -4,-295 1249.16,-295 1249.16,4 -4,4"/>
<!-- fake -->
<g id="node1" class="node">
<title>fake</title>
</g>
<!-- 3 -->
<g id="node4" class="node">
<title>3</title>
<ellipse fill="none" stroke="black" cx="294.16" cy="-200" rx="27" ry="18"/>
<text text-anchor="middle" x="294.16" y="-196.3" font-family="Times,serif" font-size="14.00">3</text>
</g>
<!-- fake&#45;&gt;3 -->
<g id="edge1" class="edge">
<title>fake&#45;&gt;3</title>
<path fill="none" stroke="black" stroke-width="2" d="M294.16,-254.81C294.16,-246.79 294.16,-237.05 294.16,-228.07"/>
<polygon fill="black" stroke="black" stroke-width="2" points="297.66,-228.03 294.16,-218.03 290.66,-228.03 297.66,-228.03"/>
</g>
<!-- 0 -->
<g id="node2" class="node">
<title>0</title>
<ellipse fill="none" stroke="black" cx="294.16" cy="-22" rx="18" ry="18"/>
<ellipse fill="none" stroke="black" cx="294.16" cy="-22" rx="22" ry="22"/>
<text text-anchor="middle" x="294.16" y="-18.3" font-family="Times,serif" font-size="14.00">0</text>
</g>
<!-- 0&#45;&gt;0 -->
<g id="edge2" class="edge">
<title>0&#45;&gt;0</title>
<path fill="none" stroke="black" d="M316.37,-23.48C325.96,-23.6 334.16,-23.11 334.16,-22 334.16,-21.32 331.11,-20.88 326.57,-20.66"/>
<polygon fill="black" stroke="black" points="326.42,-17.16 316.37,-20.52 326.32,-24.15 326.42,-17.16"/>
<text text-anchor="middle" x="426.16" y="-18.3" font-family="Times,serif" font-size="14.00">{bad_beep, gold, orange}</text>
</g>
<!-- 0&#45;&gt;0 -->
<g id="edge3" class="edge">
<title>0&#45;&gt;0</title>
<path fill="none" stroke="black" d="M316.11,-23.61C373.8,-25.9 518.16,-25.36 518.16,-22 518.16,-18.82 389.16,-18.17 326.31,-20.04"/>
<polygon fill="black" stroke="black" points="325.98,-16.55 316.11,-20.39 326.22,-23.54 325.98,-16.55"/>
<text text-anchor="middle" x="542.66" y="-18.3" font-family="Times,serif" font-size="14.00">{gold}</text>
</g>
<!-- 0&#45;&gt;0 -->
<g id="edge4" class="edge">
<title>0&#45;&gt;0</title>
<path fill="none" stroke="black" d="M316.27,-24.15C383.42,-27.88 567.16,-27.17 567.16,-22 567.16,-17.07 400.24,-16.19 326.45,-19.35"/>
<polygon fill="black" stroke="black" points="326.09,-15.87 316.27,-19.85 326.43,-22.86 326.09,-15.87"/>
<text text-anchor="middle" x="576.66" y="-18.3" font-family="Times,serif" font-size="14.00">{}</text>
</g>
<!-- 0&#45;&gt;0 -->
<g id="edge5" class="edge">
<title>0&#45;&gt;0</title>
<path fill="none" stroke="black" d="M316.18,-24.66C387.48,-29.87 586.16,-28.98 586.16,-22 586.16,-15.33 404.93,-14.22 326.53,-18.67"/>
<polygon fill="black" stroke="black" points="325.94,-15.21 316.18,-19.34 326.38,-22.19 325.94,-15.21"/>
<text text-anchor="middle" x="658.66" y="-18.3" font-family="Times,serif" font-size="14.00">{bad_beep, orange}</text>
</g>
<!-- 0&#45;&gt;0 -->
<g id="edge6" class="edge">
<title>0&#45;&gt;0</title>
<path fill="none" stroke="black" d="M316.25,-24.76C409.25,-31.89 731.16,-30.97 731.16,-22 731.16,-13.32 430.28,-12.18 326.25,-18.56"/>
<polygon fill="black" stroke="black" points="325.99,-15.06 316.25,-19.24 326.47,-22.05 325.99,-15.06"/>
<text text-anchor="middle" x="794.16" y="-18.3" font-family="Times,serif" font-size="14.00">{bad_beep, gold}</text>
</g>
<!-- 0&#45;&gt;0 -->
<g id="edge7" class="edge">
<title>0&#45;&gt;0</title>
<path fill="none" stroke="black" d="M316.3,-24.91C425.75,-33.91 857.16,-32.93 857.16,-22 857.16,-11.38 449.84,-10.16 326.36,-18.35"/>
<polygon fill="black" stroke="black" points="326.02,-14.86 316.3,-19.09 326.53,-21.84 326.02,-14.86"/>
<text text-anchor="middle" x="911.16" y="-18.3" font-family="Times,serif" font-size="14.00">{gold, orange}</text>
</g>
<!-- 0&#45;&gt;0 -->
<g id="edge8" class="edge">
<title>0&#45;&gt;0</title>
<path fill="none" stroke="black" d="M316.02,-25.06C437.95,-35.91 965.16,-34.89 965.16,-22 965.16,-9.43 464.39,-8.15 326.08,-18.14"/>
<polygon fill="black" stroke="black" points="325.71,-14.65 316.02,-18.94 326.27,-21.63 325.71,-14.65"/>
<text text-anchor="middle" x="1008.16" y="-18.3" font-family="Times,serif" font-size="14.00">{bad_beep}</text>
</g>
<!-- 0&#45;&gt;0 -->
<g id="edge9" class="edge">
<title>0&#45;&gt;0</title>
<path fill="none" stroke="black" d="M316.19,-25.26C448.51,-37.91 1051.16,-36.83 1051.16,-22 1051.16,-7.52 476.43,-6.14 326.26,-17.87"/>
<polygon fill="black" stroke="black" points="325.85,-14.4 316.19,-18.74 326.45,-21.37 325.85,-14.4"/>
<text text-anchor="middle" x="1085.16" y="-18.3" font-family="Times,serif" font-size="14.00">{orange}</text>
</g>
<!-- 2 -->
<g id="node3" class="node">
<title>2</title>
<ellipse fill="none" stroke="black" cx="294.16" cy="-113" rx="27" ry="18"/>
<text text-anchor="middle" x="294.16" y="-109.3" font-family="Times,serif" font-size="14.00">2</text>
</g>
<!-- 2&#45;&gt;0 -->
<g id="edge11" class="edge">
<title>2&#45;&gt;0</title>
<path fill="none" stroke="black" d="M267.28,-110.75C198.71,-107.3 21.49,-96.54 4.16,-77 -30.95,-37.4 179.68,-26.54 262.12,-23.83"/>
<polygon fill="black" stroke="black" points="262.3,-27.33 272.19,-23.52 262.09,-20.33 262.3,-27.33"/>
<text text-anchor="middle" x="96.16" y="-65.8" font-family="Times,serif" font-size="14.00">{bad_beep, gold, orange}</text>
</g>
<!-- 2&#45;&gt;0 -->
<g id="edge13" class="edge">
<title>2&#45;&gt;0</title>
<path fill="none" stroke="black" d="M267.95,-108.62C248.66,-104.61 223.7,-95.89 211.16,-77 195.77,-53.81 233.05,-38.35 262.53,-30.12"/>
<polygon fill="black" stroke="black" points="263.74,-33.42 272.53,-27.51 261.97,-26.65 263.74,-33.42"/>
<text text-anchor="middle" x="283.66" y="-65.8" font-family="Times,serif" font-size="14.00">{bad_beep, orange}</text>
</g>
<!-- 2&#45;&gt;0 -->
<g id="edge14" class="edge">
<title>2&#45;&gt;0</title>
<path fill="none" stroke="black" d="M318.55,-105C332.2,-99.69 348.06,-90.88 356.16,-77 366.71,-58.93 344.86,-43.86 324.25,-34.26"/>
<polygon fill="black" stroke="black" points="325.56,-31.02 314.99,-30.25 322.77,-37.44 325.56,-31.02"/>
<text text-anchor="middle" x="412.16" y="-65.8" font-family="Times,serif" font-size="14.00">{gold, orange}</text>
</g>
<!-- 2&#45;&gt;0 -->
<g id="edge15" class="edge">
<title>2&#45;&gt;0</title>
<path fill="none" stroke="black" d="M321.24,-110.67C365.83,-107.86 451.63,-99.58 470.16,-77 509.56,-28.99 387.73,-22.75 326.74,-22.53"/>
<polygon fill="black" stroke="black" points="326.45,-19.03 316.46,-22.55 326.47,-26.03 326.45,-19.03"/>
<text text-anchor="middle" x="511.16" y="-65.8" font-family="Times,serif" font-size="14.00">{orange}</text>
</g>
<!-- 2&#45;&gt;2 -->
<g id="edge10" class="edge">
<title>2&#45;&gt;2</title>
<path fill="none" stroke="black" d="M320.96,-116.93C330.94,-117.06 339.16,-115.75 339.16,-113 339.16,-111.28 335.95,-110.13 331.1,-109.53"/>
<polygon fill="black" stroke="black" points="331.1,-106.03 320.96,-109.07 330.79,-113.02 331.1,-106.03"/>
<text text-anchor="middle" x="348.66" y="-109.3" font-family="Times,serif" font-size="14.00">{}</text>
</g>
<!-- 2&#45;&gt;2 -->
<g id="edge12" class="edge">
<title>2&#45;&gt;2</title>
<path fill="none" stroke="black" d="M319.31,-119.9C338.52,-122.4 358.16,-120.1 358.16,-113 358.16,-107.18 344.95,-104.59 329.59,-105.22"/>
<polygon fill="black" stroke="black" points="328.97,-101.76 319.31,-106.1 329.57,-108.73 328.97,-101.76"/>
<text text-anchor="middle" x="401.16" y="-109.3" font-family="Times,serif" font-size="14.00">{bad_beep}</text>
</g>
<!-- 3&#45;&gt;2 -->
<g id="edge16" class="edge">
<title>3&#45;&gt;2</title>
<path fill="none" stroke="black" d="M267.54,-196.45C229.77,-192.23 163.62,-182.36 149.16,-164 119.26,-126.03 204.64,-116.77 256.87,-114.59"/>
<polygon fill="black" stroke="black" points="257.27,-118.08 267.14,-114.24 257.03,-111.08 257.27,-118.08"/>
<text text-anchor="middle" x="173.66" y="-152.8" font-family="Times,serif" font-size="14.00">{gold}</text>
</g>
<!-- 3&#45;&gt;2 -->
<g id="edge17" class="edge">
<title>3&#45;&gt;2</title>
<path fill="none" stroke="black" d="M268.52,-194.01C251.9,-189.3 231.49,-180.41 221.16,-164 209.15,-144.92 234.91,-131.28 259.07,-123.12"/>
<polygon fill="black" stroke="black" points="260.37,-126.38 268.87,-120.06 258.28,-119.7 260.37,-126.38"/>
<text text-anchor="middle" x="284.16" y="-152.8" font-family="Times,serif" font-size="14.00">{bad_beep, gold}</text>
</g>
<!-- 3&#45;&gt;2 -->
<g id="edge19" class="edge">
<title>3&#45;&gt;2</title>
<path fill="none" stroke="black" d="M317.01,-190.15C328.25,-184.49 340.73,-175.94 347.16,-164 354.93,-149.57 341.25,-136.93 325.86,-127.98"/>
<polygon fill="black" stroke="black" points="327.21,-124.74 316.74,-123.14 323.93,-130.92 327.21,-124.74"/>
<text text-anchor="middle" x="403.16" y="-152.8" font-family="Times,serif" font-size="14.00">{gold, orange}</text>
</g>
<!-- 3&#45;&gt;2 -->
<g id="edge21" class="edge">
<title>3&#45;&gt;2</title>
<path fill="none" stroke="black" d="M320.9,-197.38C363.5,-194.17 443.79,-185.39 461.16,-164 496.89,-120.01 390.99,-113.62 331.55,-113.36"/>
<polygon fill="black" stroke="black" points="331.38,-109.86 321.38,-113.38 331.39,-116.86 331.38,-109.86"/>
<text text-anchor="middle" x="559.16" y="-152.8" font-family="Times,serif" font-size="14.00">{bad_beep, gold, orange}</text>
</g>
<!-- 3&#45;&gt;3 -->
<g id="edge18" class="edge">
<title>3&#45;&gt;3</title>
<path fill="none" stroke="black" d="M320.96,-203.37C330.94,-203.48 339.16,-202.36 339.16,-200 339.16,-198.53 335.95,-197.54 331.1,-197.03"/>
<polygon fill="black" stroke="black" points="331.08,-193.53 320.96,-196.63 330.81,-200.52 331.08,-193.53"/>
<text text-anchor="middle" x="348.66" y="-196.3" font-family="Times,serif" font-size="14.00">{}</text>
</g>
<!-- 3&#45;&gt;3 -->
<g id="edge20" class="edge">
<title>3&#45;&gt;3</title>
<path fill="none" stroke="black" d="M319.64,-205.95C338.75,-208.03 358.16,-206.05 358.16,-200 358.16,-195.04 345.1,-192.81 329.86,-193.32"/>
<polygon fill="black" stroke="black" points="329.37,-189.85 319.64,-194.05 329.87,-196.83 329.37,-189.85"/>
<text text-anchor="middle" x="401.16" y="-196.3" font-family="Times,serif" font-size="14.00">{bad_beep}</text>
</g>
</g>
</svg>
