<?xml version="1.0" encoding="UTF-8" standalone="no"?>
<!DOCTYPE svg PUBLIC "-//W3C//DTD SVG 1.1//EN"
 "http://www.w3.org/Graphics/SVG/1.1/DTD/svg11.dtd">
<!-- Generated by graphviz version 2.43.0 (0)
 -->
<!-- Title: %3 Pages: 1 -->
<svg width="1176pt" height="299pt"
 viewBox="0.00 0.00 1176.23 299.00" xmlns="http://www.w3.org/2000/svg" xmlns:xlink="http://www.w3.org/1999/xlink">
<g id="graph0" class="graph" transform="scale(1 1) rotate(0) translate(4 295)">
<title>%3</title>
<polygon fill="white" stroke="transparent" points="-4,4 -4,-295 1172.23,-295 1172.23,4 -4,4"/>
<!-- fake -->
<g id="node1" class="node">
<title>fake</title>
</g>
<!-- 3 -->
<g id="node4" class="node">
<title>3</title>
<ellipse fill="none" stroke="black" cx="217.23" cy="-200" rx="27" ry="18"/>
<text text-anchor="middle" x="217.23" y="-196.3" font-family="Times,serif" font-size="14.00">3</text>
</g>
<!-- fake&#45;&gt;3 -->
<g id="edge1" class="edge">
<title>fake&#45;&gt;3</title>
<path fill="none" stroke="black" stroke-width="2" d="M217.23,-254.81C217.23,-246.79 217.23,-237.05 217.23,-228.07"/>
<polygon fill="black" stroke="black" stroke-width="2" points="220.73,-228.03 217.23,-218.03 213.73,-228.03 220.73,-228.03"/>
</g>
<!-- 0 -->
<g id="node2" class="node">
<title>0</title>
<ellipse fill="none" stroke="black" cx="217.23" cy="-22" rx="18" ry="18"/>
<ellipse fill="none" stroke="black" cx="217.23" cy="-22" rx="22" ry="22"/>
<text text-anchor="middle" x="217.23" y="-18.3" font-family="Times,serif" font-size="14.00">0</text>
</g>
<!-- 0&#45;&gt;0 -->
<g id="edge2" class="edge">
<title>0&#45;&gt;0</title>
<path fill="none" stroke="black" d="M239.44,-23.48C249.02,-23.6 257.23,-23.11 257.23,-22 257.23,-21.32 254.18,-20.88 249.63,-20.66"/>
<polygon fill="black" stroke="black" points="249.49,-17.16 239.44,-20.52 249.39,-24.15 249.49,-17.16"/>
<text text-anchor="middle" x="266.73" y="-18.3" font-family="Times,serif" font-size="14.00">{}</text>
</g>
<!-- 0&#45;&gt;0 -->
<g id="edge3" class="edge">
<title>0&#45;&gt;0</title>
<path fill="none" stroke="black" d="M239.17,-24.56C257.26,-25.62 276.23,-24.77 276.23,-22 276.23,-19.75 263.71,-18.77 249.31,-19.05"/>
<polygon fill="black" stroke="black" points="249.03,-15.55 239.17,-19.44 249.3,-22.55 249.03,-15.55"/>
<text text-anchor="middle" x="300.73" y="-18.3" font-family="Times,serif" font-size="14.00">{gold}</text>
</g>
<!-- 0&#45;&gt;0 -->
<g id="edge4" class="edge">
<title>0&#45;&gt;0</title>
<path fill="none" stroke="black" d="M239.09,-24.96C273.25,-27.74 325.23,-26.76 325.23,-22 325.23,-17.69 282.53,-16.48 249.11,-18.36"/>
<polygon fill="black" stroke="black" points="248.83,-14.87 239.09,-19.04 249.31,-21.85 248.83,-14.87"/>
<text text-anchor="middle" x="388.23" y="-18.3" font-family="Times,serif" font-size="14.00">{bad_beep, gold}</text>
</g>
<!-- 0&#45;&gt;0 -->
<g id="edge5" class="edge">
<title>0&#45;&gt;0</title>
<path fill="none" stroke="black" d="M239.15,-24.87C300.87,-29.85 451.23,-28.89 451.23,-22 451.23,-15.46 315.75,-14.27 249.21,-18.42"/>
<polygon fill="black" stroke="black" points="248.88,-14.94 239.15,-19.13 249.37,-21.92 248.88,-14.94"/>
<text text-anchor="middle" x="523.73" y="-18.3" font-family="Times,serif" font-size="14.00">{bad_beep, orange}</text>
</g>
<!-- 0&#45;&gt;0 -->
<g id="edge6" class="edge">
<title>0&#45;&gt;0</title>
<path fill="none" stroke="black" d="M239.27,-24.9C324.62,-31.88 596.23,-30.92 596.23,-22 596.23,-13.41 344.4,-12.2 249.52,-18.36"/>
<polygon fill="black" stroke="black" points="248.99,-14.88 239.27,-19.1 249.5,-21.87 248.99,-14.88"/>
<text text-anchor="middle" x="688.23" y="-18.3" font-family="Times,serif" font-size="14.00">{bad_beep, gold, orange}</text>
</g>
<!-- 0&#45;&gt;0 -->
<g id="edge7" class="edge">
<title>0&#45;&gt;0</title>
<path fill="none" stroke="black" d="M239.37,-24.91C348.82,-33.91 780.23,-32.93 780.23,-22 780.23,-11.38 372.91,-10.16 249.42,-18.35"/>
<polygon fill="black" stroke="black" points="249.08,-14.86 239.37,-19.09 249.6,-21.84 249.08,-14.86"/>
<text text-anchor="middle" x="823.23" y="-18.3" font-family="Times,serif" font-size="14.00">{bad_beep}</text>
</g>
<!-- 0&#45;&gt;0 -->
<g id="edge8" class="edge">
<title>0&#45;&gt;0</title>
<path fill="none" stroke="black" d="M239.07,-25.09C358.75,-35.91 866.23,-34.88 866.23,-22 866.23,-9.46 385.16,-8.15 249.33,-18.08"/>
<polygon fill="black" stroke="black" points="248.76,-14.61 239.07,-18.91 249.32,-21.59 248.76,-14.61"/>
<text text-anchor="middle" x="900.23" y="-18.3" font-family="Times,serif" font-size="14.00">{orange}</text>
</g>
<!-- 0&#45;&gt;0 -->
<g id="edge9" class="edge">
<title>0&#45;&gt;0</title>
<path fill="none" stroke="black" d="M239.05,-25.3C367.13,-37.91 934.23,-36.81 934.23,-22 934.23,-7.55 394.48,-6.15 249.2,-17.8"/>
<polygon fill="black" stroke="black" points="248.7,-14.33 239.05,-18.7 249.32,-21.31 248.7,-14.33"/>
<text text-anchor="middle" x="988.23" y="-18.3" font-family="Times,serif" font-size="14.00">{gold, orange}</text>
</g>
<!-- 2 -->
<g id="node3" class="node">
<title>2</title>
<ellipse fill="none" stroke="black" cx="217.23" cy="-113" rx="27" ry="18"/>
<text text-anchor="middle" x="217.23" y="-109.3" font-family="Times,serif" font-size="14.00">2</text>
</g>
<!-- 2&#45;&gt;0 -->
<g id="edge10" class="edge">
<title>2&#45;&gt;0</title>
<path fill="none" stroke="black" d="M190.21,-111.74C138.15,-110.61 26.93,-104.9 3.23,-77 -1.09,-71.92 -1.04,-67.12 3.23,-62 26.02,-34.68 131.21,-26.45 185.14,-24.01"/>
<polygon fill="black" stroke="black" points="185.36,-27.5 195.2,-23.59 185.07,-20.51 185.36,-27.5"/>
<text text-anchor="middle" x="57.23" y="-65.8" font-family="Times,serif" font-size="14.00">{gold, orange}</text>
</g>
<!-- 2&#45;&gt;0 -->
<g id="edge12" class="edge">
<title>2&#45;&gt;0</title>
<path fill="none" stroke="black" d="M191.02,-108.62C171.73,-104.61 146.76,-95.89 134.23,-77 118.84,-53.81 156.11,-38.35 185.59,-30.12"/>
<polygon fill="black" stroke="black" points="186.81,-33.42 195.6,-27.51 185.04,-26.65 186.81,-33.42"/>
<text text-anchor="middle" x="206.73" y="-65.8" font-family="Times,serif" font-size="14.00">{bad_beep, orange}</text>
</g>
<!-- 2&#45;&gt;0 -->
<g id="edge13" class="edge">
<title>2&#45;&gt;0</title>
<path fill="none" stroke="black" d="M241.61,-105C255.26,-99.69 271.12,-90.88 279.23,-77 289.77,-58.93 267.93,-43.86 247.32,-34.26"/>
<polygon fill="black" stroke="black" points="248.62,-31.02 238.06,-30.25 245.84,-37.44 248.62,-31.02"/>
<text text-anchor="middle" x="373.23" y="-65.8" font-family="Times,serif" font-size="14.00">{bad_beep, gold, orange}</text>
</g>
<!-- 2&#45;&gt;0 -->
<g id="edge14" class="edge">
<title>2&#45;&gt;0</title>
<path fill="none" stroke="black" d="M244.4,-112.49C303.41,-112.92 440.29,-110.23 469.23,-77 473.6,-71.97 473.56,-67.06 469.23,-62 441.3,-29.42 311.16,-23.82 249.62,-23.02"/>
<polygon fill="black" stroke="black" points="249.35,-19.52 239.32,-22.92 249.29,-26.52 249.35,-19.52"/>
<text text-anchor="middle" x="506.23" y="-65.8" font-family="Times,serif" font-size="14.00">{orange}</text>
</g>
<!-- 2&#45;&gt;2 -->
<g id="edge11" class="edge">
<title>2&#45;&gt;2</title>
<path fill="none" stroke="black" d="M244.02,-116.93C254.01,-117.06 262.23,-115.75 262.23,-113 262.23,-111.28 259.02,-110.13 254.17,-109.53"/>
<polygon fill="black" stroke="black" points="254.17,-106.03 244.02,-109.07 253.85,-113.02 254.17,-106.03"/>
<text text-anchor="middle" x="305.23" y="-109.3" font-family="Times,serif" font-size="14.00">{bad_beep}</text>
</g>
<!-- 2&#45;&gt;2 -->
<g id="edge15" class="edge">
<title>2&#45;&gt;2</title>
<path fill="none" stroke="black" d="M243.19,-118.55C282.76,-122.95 348.23,-121.1 348.23,-113 348.23,-105.55 292.82,-103.38 253.15,-106.51"/>
<polygon fill="black" stroke="black" points="252.82,-103.03 243.19,-107.45 253.47,-109.99 252.82,-103.03"/>
<text text-anchor="middle" x="357.73" y="-109.3" font-family="Times,serif" font-size="14.00">{}</text>
</g>
<!-- 3&#45;&gt;2 -->
<g id="edge16" class="edge">
<title>3&#45;&gt;2</title>
<path fill="none" stroke="black" d="M190.6,-196.45C152.84,-192.23 86.68,-182.36 72.23,-164 42.33,-126.03 127.71,-116.77 179.93,-114.59"/>
<polygon fill="black" stroke="black" points="180.33,-118.08 190.21,-114.24 180.09,-111.08 180.33,-118.08"/>
<text text-anchor="middle" x="96.73" y="-152.8" font-family="Times,serif" font-size="14.00">{gold}</text>
</g>
<!-- 3&#45;&gt;2 -->
<g id="edge18" class="edge">
<title>3&#45;&gt;2</title>
<path fill="none" stroke="black" d="M191.58,-194.01C174.97,-189.3 154.56,-180.41 144.23,-164 132.21,-144.92 157.97,-131.28 182.14,-123.12"/>
<polygon fill="black" stroke="black" points="183.44,-126.38 191.94,-120.06 181.35,-119.7 183.44,-126.38"/>
<text text-anchor="middle" x="207.23" y="-152.8" font-family="Times,serif" font-size="14.00">{bad_beep, gold}</text>
</g>
<!-- 3&#45;&gt;2 -->
<g id="edge19" class="edge">
<title>3&#45;&gt;2</title>
<path fill="none" stroke="black" d="M240.07,-190.15C251.31,-184.49 263.8,-175.94 270.23,-164 277.99,-149.57 264.32,-136.93 248.92,-127.98"/>
<polygon fill="black" stroke="black" points="250.28,-124.74 239.8,-123.14 247,-130.92 250.28,-124.74"/>
<text text-anchor="middle" x="364.23" y="-152.8" font-family="Times,serif" font-size="14.00">{bad_beep, gold, orange}</text>
</g>
<!-- 3&#45;&gt;2 -->
<g id="edge20" class="edge">
<title>3&#45;&gt;2</title>
<path fill="none" stroke="black" d="M244.3,-199.34C301.68,-199.41 432.53,-195.97 460.23,-164 464.59,-158.96 464.59,-154.04 460.23,-149 434.04,-118.77 315.69,-114.05 254.35,-113.69"/>
<polygon fill="black" stroke="black" points="254.31,-110.19 244.3,-113.66 254.3,-117.19 254.31,-110.19"/>
<text text-anchor="middle" x="517.23" y="-152.8" font-family="Times,serif" font-size="14.00">{gold, orange}</text>
</g>
<!-- 3&#45;&gt;3 -->
<g id="edge17" class="edge">
<title>3&#45;&gt;3</title>
<path fill="none" stroke="black" d="M244.02,-203.37C254.01,-203.48 262.23,-202.36 262.23,-200 262.23,-198.53 259.02,-197.54 254.17,-197.03"/>
<polygon fill="black" stroke="black" points="254.15,-193.53 244.02,-196.63 253.88,-200.52 254.15,-193.53"/>
<text text-anchor="middle" x="271.73" y="-196.3" font-family="Times,serif" font-size="14.00">{}</text>
</g>
<!-- 3&#45;&gt;3 -->
<g id="edge21" class="edge">
<title>3&#45;&gt;3</title>
<path fill="none" stroke="black" d="M242.71,-205.95C261.82,-208.03 281.23,-206.05 281.23,-200 281.23,-195.04 268.16,-192.81 252.92,-193.32"/>
<polygon fill="black" stroke="black" points="252.43,-189.85 242.71,-194.05 252.93,-196.83 252.43,-189.85"/>
<text text-anchor="middle" x="324.23" y="-196.3" font-family="Times,serif" font-size="14.00">{bad_beep}</text>
</g>
</g>
</svg>
