<?xml version="1.0" encoding="UTF-8" standalone="no"?>
<!DOCTYPE svg PUBLIC "-//W3C//DTD SVG 1.1//EN"
 "http://www.w3.org/Graphics/SVG/1.1/DTD/svg11.dtd">
<!-- Generated by graphviz version 2.43.0 (0)
 -->
<!-- Title: %3 Pages: 1 -->
<svg width="1195pt" height="299pt"
 viewBox="0.00 0.00 1195.26 299.00" xmlns="http://www.w3.org/2000/svg" xmlns:xlink="http://www.w3.org/1999/xlink">
<g id="graph0" class="graph" transform="scale(1 1) rotate(0) translate(4 295)">
<title>%3</title>
<polygon fill="white" stroke="transparent" points="-4,4 -4,-295 1191.26,-295 1191.26,4 -4,4"/>
<!-- fake -->
<g id="node1" class="node">
<title>fake</title>
</g>
<!-- 3 -->
<g id="node4" class="node">
<title>3</title>
<ellipse fill="none" stroke="black" cx="236.26" cy="-200" rx="27" ry="18"/>
<text text-anchor="middle" x="236.26" y="-196.3" font-family="Times,serif" font-size="14.00">3</text>
</g>
<!-- fake&#45;&gt;3 -->
<g id="edge1" class="edge">
<title>fake&#45;&gt;3</title>
<path fill="none" stroke="black" stroke-width="2" d="M236.26,-254.81C236.26,-246.79 236.26,-237.05 236.26,-228.07"/>
<polygon fill="black" stroke="black" stroke-width="2" points="239.76,-228.03 236.26,-218.03 232.76,-228.03 239.76,-228.03"/>
</g>
<!-- 0 -->
<g id="node2" class="node">
<title>0</title>
<ellipse fill="none" stroke="black" cx="236.26" cy="-22" rx="18" ry="18"/>
<ellipse fill="none" stroke="black" cx="236.26" cy="-22" rx="22" ry="22"/>
<text text-anchor="middle" x="236.26" y="-18.3" font-family="Times,serif" font-size="14.00">0</text>
</g>
<!-- 0&#45;&gt;0 -->
<g id="edge2" class="edge">
<title>0&#45;&gt;0</title>
<path fill="none" stroke="black" d="M258.47,-23.48C268.06,-23.6 276.26,-23.11 276.26,-22 276.26,-21.32 273.22,-20.88 268.67,-20.66"/>
<polygon fill="black" stroke="black" points="268.52,-17.16 258.47,-20.52 268.43,-24.15 268.52,-17.16"/>
<text text-anchor="middle" x="319.26" y="-18.3" font-family="Times,serif" font-size="14.00">{bad_beep}</text>
</g>
<!-- 0&#45;&gt;0 -->
<g id="edge3" class="edge">
<title>0&#45;&gt;0</title>
<path fill="none" stroke="black" d="M258.33,-24C295.85,-25.82 362.26,-25.16 362.26,-22 362.26,-19.11 306.77,-18.31 268.59,-19.59"/>
<polygon fill="black" stroke="black" points="268.18,-16.1 258.33,-20 268.47,-23.1 268.18,-16.1"/>
<text text-anchor="middle" x="396.26" y="-18.3" font-family="Times,serif" font-size="14.00">{orange}</text>
</g>
<!-- 0&#45;&gt;0 -->
<g id="edge4" class="edge">
<title>0&#45;&gt;0</title>
<path fill="none" stroke="black" d="M258.18,-24.42C311.3,-27.85 430.26,-27.04 430.26,-22 430.26,-17.27 325.27,-16.27 268.51,-19"/>
<polygon fill="black" stroke="black" points="267.97,-15.53 258.18,-19.58 268.36,-22.52 267.97,-15.53"/>
<text text-anchor="middle" x="484.26" y="-18.3" font-family="Times,serif" font-size="14.00">{gold, orange}</text>
</g>
<!-- 0&#45;&gt;0 -->
<g id="edge5" class="edge">
<title>0&#45;&gt;0</title>
<path fill="none" stroke="black" d="M258.24,-24.62C331.03,-29.87 538.26,-29 538.26,-22 538.26,-15.3 348.46,-14.21 268.34,-18.73"/>
<polygon fill="black" stroke="black" points="267.99,-15.25 258.24,-19.37 268.44,-22.23 267.99,-15.25"/>
<text text-anchor="middle" x="630.26" y="-18.3" font-family="Times,serif" font-size="14.00">{bad_beep, gold, orange}</text>
</g>
<!-- 0&#45;&gt;0 -->
<g id="edge6" class="edge">
<title>0&#45;&gt;0</title>
<path fill="none" stroke="black" d="M258.17,-24.64C356.95,-31.9 722.26,-31.02 722.26,-22 722.26,-13.26 379.42,-12.16 268.19,-18.7"/>
<polygon fill="black" stroke="black" points="267.92,-15.21 258.17,-19.36 268.37,-22.19 267.92,-15.21"/>
<text text-anchor="middle" x="746.76" y="-18.3" font-family="Times,serif" font-size="14.00">{gold}</text>
</g>
<!-- 0&#45;&gt;0 -->
<g id="edge7" class="edge">
<title>0&#45;&gt;0</title>
<path fill="none" stroke="black" d="M258.12,-24.94C363.97,-33.9 771.26,-32.92 771.26,-22 771.26,-11.4 387.49,-10.16 268.18,-18.29"/>
<polygon fill="black" stroke="black" points="267.82,-14.81 258.12,-19.06 268.35,-21.79 267.82,-14.81"/>
<text text-anchor="middle" x="843.76" y="-18.3" font-family="Times,serif" font-size="14.00">{bad_beep, orange}</text>
</g>
<!-- 0&#45;&gt;0 -->
<g id="edge8" class="edge">
<title>0&#45;&gt;0</title>
<path fill="none" stroke="black" d="M258.28,-25.06C381.42,-35.91 916.26,-34.89 916.26,-22 916.26,-9.43 408.24,-8.15 268.44,-18.14"/>
<polygon fill="black" stroke="black" points="267.97,-14.66 258.28,-18.94 268.53,-21.64 267.97,-14.66"/>
<text text-anchor="middle" x="925.76" y="-18.3" font-family="Times,serif" font-size="14.00">{}</text>
</g>
<!-- 0&#45;&gt;0 -->
<g id="edge9" class="edge">
<title>0&#45;&gt;0</title>
<path fill="none" stroke="black" d="M258.2,-25.34C384.76,-37.91 935.26,-36.8 935.26,-22 935.26,-7.56 411.31,-6.15 268.21,-17.77"/>
<polygon fill="black" stroke="black" points="267.85,-14.28 258.2,-18.66 268.47,-21.26 267.85,-14.28"/>
<text text-anchor="middle" x="998.26" y="-18.3" font-family="Times,serif" font-size="14.00">{bad_beep, gold}</text>
</g>
<!-- 2 -->
<g id="node3" class="node">
<title>2</title>
<ellipse fill="none" stroke="black" cx="236.26" cy="-113" rx="27" ry="18"/>
<text text-anchor="middle" x="236.26" y="-109.3" font-family="Times,serif" font-size="14.00">2</text>
</g>
<!-- 2&#45;&gt;0 -->
<g id="edge11" class="edge">
<title>2&#45;&gt;0</title>
<path fill="none" stroke="black" d="M209.48,-109.89C169.46,-106.13 97.02,-96.72 81.26,-77 47.48,-34.74 149.04,-25.46 203.79,-23.49"/>
<polygon fill="black" stroke="black" points="204.17,-26.98 214.06,-23.18 203.96,-19.98 204.17,-26.98"/>
<text text-anchor="middle" x="115.26" y="-65.8" font-family="Times,serif" font-size="14.00">{orange}</text>
</g>
<!-- 2&#45;&gt;0 -->
<g id="edge12" class="edge">
<title>2&#45;&gt;0</title>
<path fill="none" stroke="black" d="M211.44,-105.32C197.28,-100.1 180.72,-91.27 172.26,-77 161.22,-58.37 184.69,-43.14 206.26,-33.66"/>
<polygon fill="black" stroke="black" points="207.66,-36.87 215.59,-29.83 205.01,-30.39 207.66,-36.87"/>
<text text-anchor="middle" x="226.26" y="-65.8" font-family="Times,serif" font-size="14.00">{gold, orange}</text>
</g>
<!-- 2&#45;&gt;0 -->
<g id="edge13" class="edge">
<title>2&#45;&gt;0</title>
<path fill="none" stroke="black" d="M256.9,-101.14C271.48,-91.88 287.28,-77.61 280.26,-62 276.53,-53.7 270.06,-46.46 263.22,-40.53"/>
<polygon fill="black" stroke="black" points="265.18,-37.62 255.15,-34.21 260.86,-43.13 265.18,-37.62"/>
<text text-anchor="middle" x="373.26" y="-65.8" font-family="Times,serif" font-size="14.00">{bad_beep, gold, orange}</text>
</g>
<!-- 2&#45;&gt;0 -->
<g id="edge14" class="edge">
<title>2&#45;&gt;0</title>
<path fill="none" stroke="black" d="M263.5,-112.15C319.17,-111.8 442.97,-107.53 469.26,-77 473.61,-71.95 473.57,-67.09 469.26,-62 443.88,-32.01 326,-25.07 268.28,-23.47"/>
<polygon fill="black" stroke="black" points="268.32,-19.97 258.24,-23.23 268.15,-26.97 268.32,-19.97"/>
<text text-anchor="middle" x="544.76" y="-65.8" font-family="Times,serif" font-size="14.00">{bad_beep, orange}</text>
</g>
<!-- 2&#45;&gt;2 -->
<g id="edge10" class="edge">
<title>2&#45;&gt;2</title>
<path fill="none" stroke="black" d="M263.06,-116.93C273.04,-117.06 281.26,-115.75 281.26,-113 281.26,-111.28 278.05,-110.13 273.21,-109.53"/>
<polygon fill="black" stroke="black" points="273.21,-106.03 263.06,-109.07 272.89,-113.02 273.21,-106.03"/>
<text text-anchor="middle" x="290.76" y="-109.3" font-family="Times,serif" font-size="14.00">{}</text>
</g>
<!-- 2&#45;&gt;2 -->
<g id="edge15" class="edge">
<title>2&#45;&gt;2</title>
<path fill="none" stroke="black" d="M261.41,-119.9C280.63,-122.4 300.26,-120.1 300.26,-113 300.26,-107.18 287.05,-104.59 271.69,-105.22"/>
<polygon fill="black" stroke="black" points="271.08,-101.76 261.41,-106.1 271.67,-108.73 271.08,-101.76"/>
<text text-anchor="middle" x="343.26" y="-109.3" font-family="Times,serif" font-size="14.00">{bad_beep}</text>
</g>
<!-- 3&#45;&gt;2 -->
<g id="edge17" class="edge">
<title>3&#45;&gt;2</title>
<path fill="none" stroke="black" d="M209.03,-199.15C153.36,-198.8 29.55,-194.53 3.26,-164 -1.09,-158.95 -1.09,-154.05 3.26,-149 28.06,-120.2 139.65,-114.77 198.94,-113.96"/>
<polygon fill="black" stroke="black" points="199.06,-117.45 209.03,-113.85 198.99,-110.45 199.06,-117.45"/>
<text text-anchor="middle" x="57.26" y="-152.8" font-family="Times,serif" font-size="14.00">{gold, orange}</text>
</g>
<!-- 3&#45;&gt;2 -->
<g id="edge18" class="edge">
<title>3&#45;&gt;2</title>
<path fill="none" stroke="black" d="M209.03,-197.98C184.96,-195.47 151.13,-187.62 134.26,-164 115.3,-137.45 163.45,-124.33 199.89,-118.38"/>
<polygon fill="black" stroke="black" points="200.42,-121.83 209.79,-116.88 199.38,-114.91 200.42,-121.83"/>
<text text-anchor="middle" x="226.26" y="-152.8" font-family="Times,serif" font-size="14.00">{bad_beep, gold, orange}</text>
</g>
<!-- 3&#45;&gt;2 -->
<g id="edge19" class="edge">
<title>3&#45;&gt;2</title>
<path fill="none" stroke="black" d="M262.56,-195.44C281.57,-191.35 305.98,-182.6 318.26,-164 332.34,-142.69 300.21,-128.98 272.13,-121.4"/>
<polygon fill="black" stroke="black" points="272.61,-117.92 262.06,-118.89 270.91,-124.71 272.61,-117.92"/>
<text text-anchor="middle" x="345.76" y="-152.8" font-family="Times,serif" font-size="14.00">{gold}</text>
</g>
<!-- 3&#45;&gt;2 -->
<g id="edge20" class="edge">
<title>3&#45;&gt;2</title>
<path fill="none" stroke="black" d="M262.82,-196.11C298.97,-191.56 360.72,-181.41 374.26,-164 402.31,-127.95 323.42,-117.87 273.6,-115.07"/>
<polygon fill="black" stroke="black" points="273.62,-111.56 263.46,-114.57 273.28,-118.56 273.62,-111.56"/>
<text text-anchor="middle" x="442.26" y="-152.8" font-family="Times,serif" font-size="14.00">{bad_beep, gold}</text>
</g>
<!-- 3&#45;&gt;3 -->
<g id="edge16" class="edge">
<title>3&#45;&gt;3</title>
<path fill="none" stroke="black" d="M263.06,-203.37C273.04,-203.48 281.26,-202.36 281.26,-200 281.26,-198.53 278.05,-197.54 273.21,-197.03"/>
<polygon fill="black" stroke="black" points="273.19,-193.53 263.06,-196.63 272.91,-200.52 273.19,-193.53"/>
<text text-anchor="middle" x="324.26" y="-196.3" font-family="Times,serif" font-size="14.00">{bad_beep}</text>
</g>
<!-- 3&#45;&gt;3 -->
<g id="edge21" class="edge">
<title>3&#45;&gt;3</title>
<path fill="none" stroke="black" d="M262.53,-204.79C302.12,-208.52 367.26,-206.93 367.26,-200 367.26,-193.64 312.37,-191.78 272.74,-194.4"/>
<polygon fill="black" stroke="black" points="272.22,-190.93 262.53,-195.21 272.77,-197.91 272.22,-190.93"/>
<text text-anchor="middle" x="376.76" y="-196.3" font-family="Times,serif" font-size="14.00">{}</text>
</g>
</g>
</svg>
