<?xml version="1.0" encoding="UTF-8" standalone="no"?>
<!DOCTYPE svg PUBLIC "-//W3C//DTD SVG 1.1//EN"
 "http://www.w3.org/Graphics/SVG/1.1/DTD/svg11.dtd">
<!-- Generated by graphviz version 2.43.0 (0)
 -->
<!-- Title: %3 Pages: 1 -->
<svg width="1213pt" height="299pt"
 viewBox="0.00 0.00 1213.27 299.00" xmlns="http://www.w3.org/2000/svg" xmlns:xlink="http://www.w3.org/1999/xlink">
<g id="graph0" class="graph" transform="scale(1 1) rotate(0) translate(4 295)">
<title>%3</title>
<polygon fill="white" stroke="transparent" points="-4,4 -4,-295 1209.27,-295 1209.27,4 -4,4"/>
<!-- fake -->
<g id="node1" class="node">
<title>fake</title>
</g>
<!-- 3 -->
<g id="node4" class="node">
<title>3</title>
<ellipse fill="none" stroke="black" cx="254.27" cy="-200" rx="27" ry="18"/>
<text text-anchor="middle" x="254.27" y="-196.3" font-family="Times,serif" font-size="14.00">3</text>
</g>
<!-- fake&#45;&gt;3 -->
<g id="edge1" class="edge">
<title>fake&#45;&gt;3</title>
<path fill="none" stroke="black" stroke-width="2" d="M254.27,-254.81C254.27,-246.79 254.27,-237.05 254.27,-228.07"/>
<polygon fill="black" stroke="black" stroke-width="2" points="257.77,-228.03 254.27,-218.03 250.77,-228.03 257.77,-228.03"/>
</g>
<!-- 0 -->
<g id="node2" class="node">
<title>0</title>
<ellipse fill="none" stroke="black" cx="254.27" cy="-22" rx="18" ry="18"/>
<ellipse fill="none" stroke="black" cx="254.27" cy="-22" rx="22" ry="22"/>
<text text-anchor="middle" x="254.27" y="-18.3" font-family="Times,serif" font-size="14.00">0</text>
</g>
<!-- 0&#45;&gt;0 -->
<g id="edge2" class="edge">
<title>0&#45;&gt;0</title>
<path fill="none" stroke="black" d="M276.48,-23.48C286.07,-23.6 294.27,-23.11 294.27,-22 294.27,-21.32 291.23,-20.88 286.68,-20.66"/>
<polygon fill="black" stroke="black" points="286.53,-17.16 276.48,-20.52 286.44,-24.15 286.53,-17.16"/>
<text text-anchor="middle" x="386.27" y="-18.3" font-family="Times,serif" font-size="14.00">{bad_beep, gold, orange}</text>
</g>
<!-- 0&#45;&gt;0 -->
<g id="edge3" class="edge">
<title>0&#45;&gt;0</title>
<path fill="none" stroke="black" d="M276.22,-23.61C333.91,-25.9 478.27,-25.36 478.27,-22 478.27,-18.82 349.27,-18.17 286.43,-20.04"/>
<polygon fill="black" stroke="black" points="286.1,-16.55 276.22,-20.39 286.33,-23.54 286.1,-16.55"/>
<text text-anchor="middle" x="521.27" y="-18.3" font-family="Times,serif" font-size="14.00">{bad_beep}</text>
</g>
<!-- 0&#45;&gt;0 -->
<g id="edge4" class="edge">
<title>0&#45;&gt;0</title>
<path fill="none" stroke="black" d="M276.32,-24.05C349.23,-27.9 564.27,-27.21 564.27,-22 564.27,-17.01 367.32,-16.17 286.48,-19.48"/>
<polygon fill="black" stroke="black" points="286.15,-15.99 276.32,-19.95 286.47,-22.99 286.15,-15.99"/>
<text text-anchor="middle" x="598.27" y="-18.3" font-family="Times,serif" font-size="14.00">{orange}</text>
</g>
<!-- 0&#45;&gt;0 -->
<g id="edge5" class="edge">
<title>0&#45;&gt;0</title>
<path fill="none" stroke="black" d="M276.38,-24.43C360.3,-29.9 632.27,-29.09 632.27,-22 632.27,-15.18 380.11,-14.17 286.47,-18.99"/>
<polygon fill="black" stroke="black" points="286.16,-15.5 276.38,-19.57 286.56,-22.49 286.16,-15.5"/>
<text text-anchor="middle" x="686.27" y="-18.3" font-family="Times,serif" font-size="14.00">{gold, orange}</text>
</g>
<!-- 0&#45;&gt;0 -->
<g id="edge6" class="edge">
<title>0&#45;&gt;0</title>
<path fill="none" stroke="black" d="M276.18,-24.64C374.96,-31.9 740.27,-31.02 740.27,-22 740.27,-13.26 397.43,-12.16 286.2,-18.7"/>
<polygon fill="black" stroke="black" points="285.93,-15.21 276.18,-19.36 286.38,-22.19 285.93,-15.21"/>
<text text-anchor="middle" x="803.27" y="-18.3" font-family="Times,serif" font-size="14.00">{bad_beep, gold}</text>
</g>
<!-- 0&#45;&gt;0 -->
<g id="edge7" class="edge">
<title>0&#45;&gt;0</title>
<path fill="none" stroke="black" d="M276.39,-24.83C391.15,-33.91 866.27,-32.97 866.27,-22 866.27,-11.33 416.77,-10.15 286.59,-18.45"/>
<polygon fill="black" stroke="black" points="286.12,-14.97 276.39,-19.17 286.61,-21.96 286.12,-14.97"/>
<text text-anchor="middle" x="875.77" y="-18.3" font-family="Times,serif" font-size="14.00">{}</text>
</g>
<!-- 0&#45;&gt;0 -->
<g id="edge8" class="edge">
<title>0&#45;&gt;0</title>
<path fill="none" stroke="black" d="M276.17,-25.13C394.08,-35.91 885.27,-34.87 885.27,-22 885.27,-9.47 419.64,-8.16 286.26,-18.04"/>
<polygon fill="black" stroke="black" points="285.85,-14.57 276.17,-18.87 286.42,-21.54 285.85,-14.57"/>
<text text-anchor="middle" x="909.77" y="-18.3" font-family="Times,serif" font-size="14.00">{gold}</text>
</g>
<!-- 0&#45;&gt;0 -->
<g id="edge9" class="edge">
<title>0&#45;&gt;0</title>
<path fill="none" stroke="black" d="M276.3,-25.38C401.15,-37.91 934.27,-36.78 934.27,-22 934.27,-7.59 427.87,-6.16 286.58,-17.69"/>
<polygon fill="black" stroke="black" points="285.94,-14.24 276.3,-18.62 286.57,-21.21 285.94,-14.24"/>
<text text-anchor="middle" x="1006.77" y="-18.3" font-family="Times,serif" font-size="14.00">{bad_beep, orange}</text>
</g>
<!-- 2 -->
<g id="node3" class="node">
<title>2</title>
<ellipse fill="none" stroke="black" cx="254.27" cy="-113" rx="27" ry="18"/>
<text text-anchor="middle" x="254.27" y="-109.3" font-family="Times,serif" font-size="14.00">2</text>
</g>
<!-- 2&#45;&gt;0 -->
<g id="edge11" class="edge">
<title>2&#45;&gt;0</title>
<path fill="none" stroke="black" d="M227.2,-112.48C168.42,-112.87 32.08,-110.11 3.27,-77 -1.1,-71.97 -1.06,-67.06 3.27,-62 31.08,-29.54 160.71,-23.88 222,-23.04"/>
<polygon fill="black" stroke="black" points="222.3,-26.54 232.27,-22.94 222.23,-19.54 222.3,-26.54"/>
<text text-anchor="middle" x="95.27" y="-65.8" font-family="Times,serif" font-size="14.00">{bad_beep, gold, orange}</text>
</g>
<!-- 2&#45;&gt;0 -->
<g id="edge13" class="edge">
<title>2&#45;&gt;0</title>
<path fill="none" stroke="black" d="M233.64,-101.14C219.05,-91.88 203.25,-77.61 210.27,-62 214.01,-53.7 220.47,-46.46 227.32,-40.53"/>
<polygon fill="black" stroke="black" points="229.68,-43.13 235.38,-34.21 225.36,-37.62 229.68,-43.13"/>
<text text-anchor="middle" x="244.27" y="-65.8" font-family="Times,serif" font-size="14.00">{orange}</text>
</g>
<!-- 2&#45;&gt;0 -->
<g id="edge14" class="edge">
<title>2&#45;&gt;0</title>
<path fill="none" stroke="black" d="M267.46,-97.03C271.79,-91.19 276.05,-84.18 278.27,-77 281.32,-67.15 278.28,-56.71 273.46,-47.67"/>
<polygon fill="black" stroke="black" points="276.44,-45.82 268.2,-39.16 270.48,-49.5 276.44,-45.82"/>
<text text-anchor="middle" x="333.27" y="-65.8" font-family="Times,serif" font-size="14.00">{gold, orange}</text>
</g>
<!-- 2&#45;&gt;0 -->
<g id="edge15" class="edge">
<title>2&#45;&gt;0</title>
<path fill="none" stroke="black" d="M280.64,-109.08C316.53,-104.49 377.83,-94.3 391.27,-77 420.35,-39.57 335.46,-28.03 286.42,-24.51"/>
<polygon fill="black" stroke="black" points="286.47,-21.01 276.26,-23.86 286.02,-28 286.47,-21.01"/>
<text text-anchor="middle" x="468.77" y="-65.8" font-family="Times,serif" font-size="14.00">{bad_beep, orange}</text>
</g>
<!-- 2&#45;&gt;2 -->
<g id="edge10" class="edge">
<title>2&#45;&gt;2</title>
<path fill="none" stroke="black" d="M281.07,-116.93C291.05,-117.06 299.27,-115.75 299.27,-113 299.27,-111.28 296.06,-110.13 291.22,-109.53"/>
<polygon fill="black" stroke="black" points="291.22,-106.03 281.07,-109.07 290.9,-113.02 291.22,-106.03"/>
<text text-anchor="middle" x="342.27" y="-109.3" font-family="Times,serif" font-size="14.00">{bad_beep}</text>
</g>
<!-- 2&#45;&gt;2 -->
<g id="edge12" class="edge">
<title>2&#45;&gt;2</title>
<path fill="none" stroke="black" d="M280.24,-118.55C319.8,-122.95 385.27,-121.1 385.27,-113 385.27,-105.55 329.87,-103.38 290.19,-106.51"/>
<polygon fill="black" stroke="black" points="289.87,-103.03 280.24,-107.45 290.52,-109.99 289.87,-103.03"/>
<text text-anchor="middle" x="394.77" y="-109.3" font-family="Times,serif" font-size="14.00">{}</text>
</g>
<!-- 3&#45;&gt;2 -->
<g id="edge16" class="edge">
<title>3&#45;&gt;2</title>
<path fill="none" stroke="black" d="M227.35,-198.5C177.22,-196.94 72.62,-190.51 50.27,-164 45.98,-158.9 45.98,-154.1 50.27,-149 71.23,-124.14 164.47,-116.94 217.35,-114.85"/>
<polygon fill="black" stroke="black" points="217.48,-118.35 227.35,-114.5 217.23,-111.35 217.48,-118.35"/>
<text text-anchor="middle" x="104.27" y="-152.8" font-family="Times,serif" font-size="14.00">{gold, orange}</text>
</g>
<!-- 3&#45;&gt;2 -->
<g id="edge18" class="edge">
<title>3&#45;&gt;2</title>
<path fill="none" stroke="black" d="M228.63,-194.01C212.01,-189.3 191.61,-180.41 181.27,-164 169.26,-144.92 195.02,-131.28 219.19,-123.12"/>
<polygon fill="black" stroke="black" points="220.48,-126.38 228.98,-120.06 218.39,-119.7 220.48,-126.38"/>
<text text-anchor="middle" x="244.27" y="-152.8" font-family="Times,serif" font-size="14.00">{bad_beep, gold}</text>
</g>
<!-- 3&#45;&gt;2 -->
<g id="edge19" class="edge">
<title>3&#45;&gt;2</title>
<path fill="none" stroke="black" d="M277.12,-190.15C288.36,-184.49 300.85,-175.94 307.27,-164 315.04,-149.57 301.37,-136.93 285.97,-127.98"/>
<polygon fill="black" stroke="black" points="287.32,-124.74 276.85,-123.14 284.05,-130.92 287.32,-124.74"/>
<text text-anchor="middle" x="333.77" y="-152.8" font-family="Times,serif" font-size="14.00">{gold}</text>
</g>
<!-- 3&#45;&gt;2 -->
<g id="edge21" class="edge">
<title>3&#45;&gt;2</title>
<path fill="none" stroke="black" d="M281.58,-198.61C307.11,-196.62 343.96,-189.19 362.27,-164 382.69,-135.93 329.8,-123.17 291.03,-117.71"/>
<polygon fill="black" stroke="black" points="291.4,-114.23 281.03,-116.42 290.5,-121.17 291.4,-114.23"/>
<text text-anchor="middle" x="458.27" y="-152.8" font-family="Times,serif" font-size="14.00">{bad_beep, gold, orange}</text>
</g>
<!-- 3&#45;&gt;3 -->
<g id="edge17" class="edge">
<title>3&#45;&gt;3</title>
<path fill="none" stroke="black" d="M281.07,-203.37C291.05,-203.48 299.27,-202.36 299.27,-200 299.27,-198.53 296.06,-197.54 291.22,-197.03"/>
<polygon fill="black" stroke="black" points="291.2,-193.53 281.07,-196.63 290.92,-200.52 291.2,-193.53"/>
<text text-anchor="middle" x="342.27" y="-196.3" font-family="Times,serif" font-size="14.00">{bad_beep}</text>
</g>
<!-- 3&#45;&gt;3 -->
<g id="edge20" class="edge">
<title>3&#45;&gt;3</title>
<path fill="none" stroke="black" d="M280.54,-204.79C320.13,-208.52 385.27,-206.93 385.27,-200 385.27,-193.64 330.38,-191.78 290.75,-194.4"/>
<polygon fill="black" stroke="black" points="290.23,-190.93 280.54,-195.21 290.78,-197.91 290.23,-190.93"/>
<text text-anchor="middle" x="394.77" y="-196.3" font-family="Times,serif" font-size="14.00">{}</text>
</g>
</g>
</svg>
