<?xml version="1.0" encoding="UTF-8" standalone="no"?>
<!DOCTYPE svg PUBLIC "-//W3C//DTD SVG 1.1//EN"
 "http://www.w3.org/Graphics/SVG/1.1/DTD/svg11.dtd">
<!-- Generated by graphviz version 2.43.0 (0)
 -->
<!-- Title: %3 Pages: 1 -->
<svg width="1213pt" height="299pt"
 viewBox="0.00 0.00 1213.28 299.00" xmlns="http://www.w3.org/2000/svg" xmlns:xlink="http://www.w3.org/1999/xlink">
<g id="graph0" class="graph" transform="scale(1 1) rotate(0) translate(4 295)">
<title>%3</title>
<polygon fill="white" stroke="transparent" points="-4,4 -4,-295 1209.28,-295 1209.28,4 -4,4"/>
<!-- fake -->
<g id="node1" class="node">
<title>fake</title>
</g>
<!-- 3 -->
<g id="node4" class="node">
<title>3</title>
<ellipse fill="none" stroke="black" cx="254.28" cy="-200" rx="27" ry="18"/>
<text text-anchor="middle" x="254.28" y="-196.3" font-family="Times,serif" font-size="14.00">3</text>
</g>
<!-- fake&#45;&gt;3 -->
<g id="edge1" class="edge">
<title>fake&#45;&gt;3</title>
<path fill="none" stroke="black" stroke-width="2" d="M254.28,-254.81C254.28,-246.79 254.28,-237.05 254.28,-228.07"/>
<polygon fill="black" stroke="black" stroke-width="2" points="257.78,-228.03 254.28,-218.03 250.78,-228.03 257.78,-228.03"/>
</g>
<!-- 0 -->
<g id="node2" class="node">
<title>0</title>
<ellipse fill="none" stroke="black" cx="254.28" cy="-22" rx="18" ry="18"/>
<ellipse fill="none" stroke="black" cx="254.28" cy="-22" rx="22" ry="22"/>
<text text-anchor="middle" x="254.28" y="-18.3" font-family="Times,serif" font-size="14.00">0</text>
</g>
<!-- 0&#45;&gt;0 -->
<g id="edge2" class="edge">
<title>0&#45;&gt;0</title>
<path fill="none" stroke="black" d="M276.49,-23.48C286.08,-23.6 294.28,-23.11 294.28,-22 294.28,-21.32 291.24,-20.88 286.69,-20.66"/>
<polygon fill="black" stroke="black" points="286.54,-17.16 276.49,-20.52 286.45,-24.15 286.54,-17.16"/>
<text text-anchor="middle" x="348.28" y="-18.3" font-family="Times,serif" font-size="14.00">{gold, orange}</text>
</g>
<!-- 0&#45;&gt;0 -->
<g id="edge3" class="edge">
<title>0&#45;&gt;0</title>
<path fill="none" stroke="black" d="M276.35,-23.89C318.97,-25.85 402.28,-25.22 402.28,-22 402.28,-19.02 330.88,-18.26 286.46,-19.72"/>
<polygon fill="black" stroke="black" points="286.21,-16.23 276.35,-20.11 286.48,-23.22 286.21,-16.23"/>
<text text-anchor="middle" x="474.78" y="-18.3" font-family="Times,serif" font-size="14.00">{bad_beep, orange}</text>
</g>
<!-- 0&#45;&gt;0 -->
<g id="edge4" class="edge">
<title>0&#45;&gt;0</title>
<path fill="none" stroke="black" d="M276.48,-24.1C346.9,-27.89 547.28,-27.19 547.28,-22 547.28,-17.04 364.5,-16.18 286.73,-19.42"/>
<polygon fill="black" stroke="black" points="286.3,-15.93 276.48,-19.9 286.63,-22.93 286.3,-15.93"/>
<text text-anchor="middle" x="610.28" y="-18.3" font-family="Times,serif" font-size="14.00">{bad_beep, gold}</text>
</g>
<!-- 0&#45;&gt;0 -->
<g id="edge5" class="edge">
<title>0&#45;&gt;0</title>
<path fill="none" stroke="black" d="M276.38,-24.34C365.78,-29.9 673.28,-29.12 673.28,-22 673.28,-15.13 387.02,-14.16 286.59,-19.1"/>
<polygon fill="black" stroke="black" points="286.17,-15.62 276.38,-19.66 286.56,-22.61 286.17,-15.62"/>
<text text-anchor="middle" x="707.28" y="-18.3" font-family="Times,serif" font-size="14.00">{orange}</text>
</g>
<!-- 0&#45;&gt;0 -->
<g id="edge6" class="edge">
<title>0&#45;&gt;0</title>
<path fill="none" stroke="black" d="M276.21,-24.64C375.15,-31.9 741.28,-31.02 741.28,-22 741.28,-13.26 397.68,-12.16 286.25,-18.7"/>
<polygon fill="black" stroke="black" points="285.96,-15.21 276.21,-19.36 286.42,-22.2 285.96,-15.21"/>
<text text-anchor="middle" x="833.28" y="-18.3" font-family="Times,serif" font-size="14.00">{bad_beep, gold, orange}</text>
</g>
<!-- 0&#45;&gt;0 -->
<g id="edge7" class="edge">
<title>0&#45;&gt;0</title>
<path fill="none" stroke="black" d="M276.46,-24.74C397.49,-33.92 925.28,-33 925.28,-22 925.28,-11.28 423.95,-10.14 286.45,-18.58"/>
<polygon fill="black" stroke="black" points="286.2,-15.09 276.46,-19.26 286.67,-22.07 286.2,-15.09"/>
<text text-anchor="middle" x="934.78" y="-18.3" font-family="Times,serif" font-size="14.00">{}</text>
</g>
<!-- 0&#45;&gt;0 -->
<g id="edge8" class="edge">
<title>0&#45;&gt;0</title>
<path fill="none" stroke="black" d="M276.09,-25.02C399.81,-35.91 944.28,-34.91 944.28,-22 944.28,-9.42 427.11,-8.14 286.31,-18.17"/>
<polygon fill="black" stroke="black" points="285.78,-14.7 276.09,-18.98 286.33,-21.68 285.78,-14.7"/>
<text text-anchor="middle" x="968.78" y="-18.3" font-family="Times,serif" font-size="14.00">{gold}</text>
</g>
<!-- 0&#45;&gt;0 -->
<g id="edge9" class="edge">
<title>0&#45;&gt;0</title>
<path fill="none" stroke="black" d="M276.45,-25.3C407.33,-37.91 993.28,-36.81 993.28,-22 993.28,-7.55 435.59,-6.15 286.83,-17.8"/>
<polygon fill="black" stroke="black" points="286.11,-14.35 276.45,-18.7 286.71,-21.33 286.11,-14.35"/>
<text text-anchor="middle" x="1036.28" y="-18.3" font-family="Times,serif" font-size="14.00">{bad_beep}</text>
</g>
<!-- 2 -->
<g id="node3" class="node">
<title>2</title>
<ellipse fill="none" stroke="black" cx="254.28" cy="-113" rx="27" ry="18"/>
<text text-anchor="middle" x="254.28" y="-109.3" font-family="Times,serif" font-size="14.00">2</text>
</g>
<!-- 2&#45;&gt;0 -->
<g id="edge10" class="edge">
<title>2&#45;&gt;0</title>
<path fill="none" stroke="black" d="M227.27,-111.74C175.2,-110.61 63.99,-104.9 40.28,-77 35.97,-71.92 36.01,-67.12 40.28,-62 63.08,-34.68 168.26,-26.45 222.2,-24.01"/>
<polygon fill="black" stroke="black" points="222.41,-27.5 232.26,-23.59 222.12,-20.51 222.41,-27.5"/>
<text text-anchor="middle" x="94.28" y="-65.8" font-family="Times,serif" font-size="14.00">{gold, orange}</text>
</g>
<!-- 2&#45;&gt;0 -->
<g id="edge12" class="edge">
<title>2&#45;&gt;0</title>
<path fill="none" stroke="black" d="M228.07,-108.62C208.78,-104.61 183.82,-95.89 171.28,-77 155.89,-53.81 193.17,-38.35 222.65,-30.12"/>
<polygon fill="black" stroke="black" points="223.86,-33.42 232.65,-27.51 222.09,-26.65 223.86,-33.42"/>
<text text-anchor="middle" x="243.78" y="-65.8" font-family="Times,serif" font-size="14.00">{bad_beep, orange}</text>
</g>
<!-- 2&#45;&gt;0 -->
<g id="edge14" class="edge">
<title>2&#45;&gt;0</title>
<path fill="none" stroke="black" d="M278.67,-105C292.32,-99.69 308.18,-90.88 316.28,-77 326.83,-58.93 304.98,-43.86 284.37,-34.26"/>
<polygon fill="black" stroke="black" points="285.68,-31.02 275.11,-30.25 282.9,-37.44 285.68,-31.02"/>
<text text-anchor="middle" x="352.28" y="-65.8" font-family="Times,serif" font-size="14.00">{orange}</text>
</g>
<!-- 2&#45;&gt;0 -->
<g id="edge15" class="edge">
<title>2&#45;&gt;0</title>
<path fill="none" stroke="black" d="M280.76,-109.01C316.43,-104.37 376.99,-94.15 390.28,-77 419.07,-39.87 335.29,-28.21 286.56,-24.59"/>
<polygon fill="black" stroke="black" points="286.67,-21.09 276.46,-23.92 286.2,-28.07 286.67,-21.09"/>
<text text-anchor="middle" x="487.28" y="-65.8" font-family="Times,serif" font-size="14.00">{bad_beep, gold, orange}</text>
</g>
<!-- 2&#45;&gt;2 -->
<g id="edge11" class="edge">
<title>2&#45;&gt;2</title>
<path fill="none" stroke="black" d="M281.08,-116.93C291.06,-117.06 299.28,-115.75 299.28,-113 299.28,-111.28 296.07,-110.13 291.23,-109.53"/>
<polygon fill="black" stroke="black" points="291.23,-106.03 281.08,-109.07 290.91,-113.02 291.23,-106.03"/>
<text text-anchor="middle" x="342.28" y="-109.3" font-family="Times,serif" font-size="14.00">{bad_beep}</text>
</g>
<!-- 2&#45;&gt;2 -->
<g id="edge13" class="edge">
<title>2&#45;&gt;2</title>
<path fill="none" stroke="black" d="M280.25,-118.55C319.81,-122.95 385.28,-121.1 385.28,-113 385.28,-105.55 329.88,-103.38 290.2,-106.51"/>
<polygon fill="black" stroke="black" points="289.88,-103.03 280.25,-107.45 290.53,-109.99 289.88,-103.03"/>
<text text-anchor="middle" x="394.78" y="-109.3" font-family="Times,serif" font-size="14.00">{}</text>
</g>
<!-- 3&#45;&gt;2 -->
<g id="edge16" class="edge">
<title>3&#45;&gt;2</title>
<path fill="none" stroke="black" d="M227.21,-199.48C168.43,-199.87 32.09,-197.11 3.28,-164 -1.09,-158.97 -1.09,-154.03 3.28,-149 30.52,-117.7 153.84,-113.52 216.9,-113.49"/>
<polygon fill="black" stroke="black" points="217.2,-116.99 227.21,-113.52 217.22,-109.99 217.2,-116.99"/>
<text text-anchor="middle" x="66.28" y="-152.8" font-family="Times,serif" font-size="14.00">{bad_beep, gold}</text>
</g>
<!-- 3&#45;&gt;2 -->
<g id="edge17" class="edge">
<title>3&#45;&gt;2</title>
<path fill="none" stroke="black" d="M227.05,-197.98C202.98,-195.47 169.15,-187.62 152.28,-164 133.32,-137.45 181.47,-124.33 217.91,-118.38"/>
<polygon fill="black" stroke="black" points="218.44,-121.83 227.81,-116.88 217.4,-114.91 218.44,-121.83"/>
<text text-anchor="middle" x="244.28" y="-152.8" font-family="Times,serif" font-size="14.00">{bad_beep, gold, orange}</text>
</g>
<!-- 3&#45;&gt;2 -->
<g id="edge18" class="edge">
<title>3&#45;&gt;2</title>
<path fill="none" stroke="black" d="M280.58,-195.44C299.59,-191.35 324,-182.6 336.28,-164 350.36,-142.69 318.23,-128.98 290.15,-121.4"/>
<polygon fill="black" stroke="black" points="290.63,-117.92 280.08,-118.89 288.93,-124.71 290.63,-117.92"/>
<text text-anchor="middle" x="363.78" y="-152.8" font-family="Times,serif" font-size="14.00">{gold}</text>
</g>
<!-- 3&#45;&gt;2 -->
<g id="edge21" class="edge">
<title>3&#45;&gt;2</title>
<path fill="none" stroke="black" d="M280.84,-196.11C316.99,-191.56 378.74,-181.41 392.28,-164 420.33,-127.95 341.44,-117.87 291.62,-115.07"/>
<polygon fill="black" stroke="black" points="291.64,-111.56 281.48,-114.57 291.3,-118.56 291.64,-111.56"/>
<text text-anchor="middle" x="451.28" y="-152.8" font-family="Times,serif" font-size="14.00">{gold, orange}</text>
</g>
<!-- 3&#45;&gt;3 -->
<g id="edge19" class="edge">
<title>3&#45;&gt;3</title>
<path fill="none" stroke="black" d="M281.08,-203.37C291.06,-203.48 299.28,-202.36 299.28,-200 299.28,-198.53 296.07,-197.54 291.23,-197.03"/>
<polygon fill="black" stroke="black" points="291.21,-193.53 281.08,-196.63 290.93,-200.52 291.21,-193.53"/>
<text text-anchor="middle" x="308.78" y="-196.3" font-family="Times,serif" font-size="14.00">{}</text>
</g>
<!-- 3&#45;&gt;3 -->
<g id="edge20" class="edge">
<title>3&#45;&gt;3</title>
<path fill="none" stroke="black" d="M279.76,-205.95C298.87,-208.03 318.28,-206.05 318.28,-200 318.28,-195.04 305.22,-192.81 289.98,-193.32"/>
<polygon fill="black" stroke="black" points="289.49,-189.85 279.76,-194.05 289.99,-196.83 289.49,-189.85"/>
<text text-anchor="middle" x="361.28" y="-196.3" font-family="Times,serif" font-size="14.00">{bad_beep}</text>
</g>
</g>
</svg>
