<?xml version="1.0" encoding="UTF-8" standalone="no"?>
<!DOCTYPE svg PUBLIC "-//W3C//DTD SVG 1.1//EN"
 "http://www.w3.org/Graphics/SVG/1.1/DTD/svg11.dtd">
<!-- Generated by graphviz version 2.43.0 (0)
 -->
<!-- Title: %3 Pages: 1 -->
<svg width="1155pt" height="299pt"
 viewBox="0.00 0.00 1155.19 299.00" xmlns="http://www.w3.org/2000/svg" xmlns:xlink="http://www.w3.org/1999/xlink">
<g id="graph0" class="graph" transform="scale(1 1) rotate(0) translate(4 295)">
<title>%3</title>
<polygon fill="white" stroke="transparent" points="-4,4 -4,-295 1151.19,-295 1151.19,4 -4,4"/>
<!-- fake -->
<g id="node1" class="node">
<title>fake</title>
</g>
<!-- 3 -->
<g id="node4" class="node">
<title>3</title>
<ellipse fill="none" stroke="black" cx="196.19" cy="-200" rx="27" ry="18"/>
<text text-anchor="middle" x="196.19" y="-196.3" font-family="Times,serif" font-size="14.00">3</text>
</g>
<!-- fake&#45;&gt;3 -->
<g id="edge1" class="edge">
<title>fake&#45;&gt;3</title>
<path fill="none" stroke="black" stroke-width="2" d="M196.19,-254.81C196.19,-246.79 196.19,-237.05 196.19,-228.07"/>
<polygon fill="black" stroke="black" stroke-width="2" points="199.69,-228.03 196.19,-218.03 192.69,-228.03 199.69,-228.03"/>
</g>
<!-- 0 -->
<g id="node2" class="node">
<title>0</title>
<ellipse fill="none" stroke="black" cx="196.19" cy="-22" rx="18" ry="18"/>
<ellipse fill="none" stroke="black" cx="196.19" cy="-22" rx="22" ry="22"/>
<text text-anchor="middle" x="196.19" y="-18.3" font-family="Times,serif" font-size="14.00">0</text>
</g>
<!-- 0&#45;&gt;0 -->
<g id="edge2" class="edge">
<title>0&#45;&gt;0</title>
<path fill="none" stroke="black" d="M218.4,-23.48C227.99,-23.6 236.19,-23.11 236.19,-22 236.19,-21.32 233.15,-20.88 228.6,-20.66"/>
<polygon fill="black" stroke="black" points="228.45,-17.16 218.4,-20.52 228.36,-24.15 228.45,-17.16"/>
<text text-anchor="middle" x="279.19" y="-18.3" font-family="Times,serif" font-size="14.00">{bad_beep}</text>
</g>
<!-- 0&#45;&gt;0 -->
<g id="edge3" class="edge">
<title>0&#45;&gt;0</title>
<path fill="none" stroke="black" d="M218.26,-24C255.78,-25.82 322.19,-25.16 322.19,-22 322.19,-19.11 266.7,-18.31 228.51,-19.59"/>
<polygon fill="black" stroke="black" points="228.11,-16.1 218.26,-20 228.4,-23.1 228.11,-16.1"/>
<text text-anchor="middle" x="356.19" y="-18.3" font-family="Times,serif" font-size="14.00">{orange}</text>
</g>
<!-- 0&#45;&gt;0 -->
<g id="edge4" class="edge">
<title>0&#45;&gt;0</title>
<path fill="none" stroke="black" d="M218.11,-24.42C271.22,-27.85 390.19,-27.04 390.19,-22 390.19,-17.27 285.19,-16.27 228.44,-19"/>
<polygon fill="black" stroke="black" points="227.9,-15.53 218.11,-19.58 228.29,-22.52 227.9,-15.53"/>
<text text-anchor="middle" x="414.69" y="-18.3" font-family="Times,serif" font-size="14.00">{gold}</text>
</g>
<!-- 0&#45;&gt;0 -->
<g id="edge5" class="edge">
<title>0&#45;&gt;0</title>
<path fill="none" stroke="black" d="M218.15,-24.83C281.45,-29.85 439.19,-28.91 439.19,-22 439.19,-15.44 297.06,-14.26 228.49,-18.45"/>
<polygon fill="black" stroke="black" points="227.89,-14.98 218.15,-19.17 228.37,-21.97 227.89,-14.98"/>
<text text-anchor="middle" x="531.19" y="-18.3" font-family="Times,serif" font-size="14.00">{bad_beep, gold, orange}</text>
</g>
<!-- 0&#45;&gt;0 -->
<g id="edge6" class="edge">
<title>0&#45;&gt;0</title>
<path fill="none" stroke="black" d="M218.29,-24.78C310.02,-31.89 623.19,-30.96 623.19,-22 623.19,-13.34 331.06,-12.18 228.45,-18.52"/>
<polygon fill="black" stroke="black" points="228.02,-15.04 218.29,-19.22 228.51,-22.02 228.02,-15.04"/>
<text text-anchor="middle" x="695.69" y="-18.3" font-family="Times,serif" font-size="14.00">{bad_beep, orange}</text>
</g>
<!-- 0&#45;&gt;0 -->
<g id="edge7" class="edge">
<title>0&#45;&gt;0</title>
<path fill="none" stroke="black" d="M218.18,-24.89C328.37,-33.91 768.19,-32.95 768.19,-22 768.19,-11.36 352.93,-10.16 228.31,-18.37"/>
<polygon fill="black" stroke="black" points="227.89,-14.89 218.18,-19.11 228.41,-21.87 227.89,-14.89"/>
<text text-anchor="middle" x="822.19" y="-18.3" font-family="Times,serif" font-size="14.00">{gold, orange}</text>
</g>
<!-- 0&#45;&gt;0 -->
<g id="edge8" class="edge">
<title>0&#45;&gt;0</title>
<path fill="none" stroke="black" d="M218.21,-25.06C341.35,-35.91 876.19,-34.89 876.19,-22 876.19,-9.43 368.17,-8.15 228.37,-18.14"/>
<polygon fill="black" stroke="black" points="227.9,-14.66 218.21,-18.94 228.46,-21.64 227.9,-14.66"/>
<text text-anchor="middle" x="885.69" y="-18.3" font-family="Times,serif" font-size="14.00">{}</text>
</g>
<!-- 0&#45;&gt;0 -->
<g id="edge9" class="edge">
<title>0&#45;&gt;0</title>
<path fill="none" stroke="black" d="M218.13,-25.34C344.69,-37.91 895.19,-36.8 895.19,-22 895.19,-7.56 371.24,-6.15 228.14,-17.77"/>
<polygon fill="black" stroke="black" points="227.78,-14.28 218.13,-18.66 228.4,-21.26 227.78,-14.28"/>
<text text-anchor="middle" x="958.19" y="-18.3" font-family="Times,serif" font-size="14.00">{bad_beep, gold}</text>
</g>
<!-- 2 -->
<g id="node3" class="node">
<title>2</title>
<ellipse fill="none" stroke="black" cx="196.19" cy="-113" rx="27" ry="18"/>
<text text-anchor="middle" x="196.19" y="-109.3" font-family="Times,serif" font-size="14.00">2</text>
</g>
<!-- 2&#45;&gt;0 -->
<g id="edge11" class="edge">
<title>2&#45;&gt;0</title>
<path fill="none" stroke="black" d="M169.21,-111.2C121.21,-109.16 24.04,-101.96 3.19,-77 -1.08,-71.88 -1.03,-67.16 3.19,-62 23.16,-37.6 114.56,-28.11 164.08,-24.72"/>
<polygon fill="black" stroke="black" points="164.5,-28.2 174.26,-24.07 164.06,-21.21 164.5,-28.2"/>
<text text-anchor="middle" x="37.19" y="-65.8" font-family="Times,serif" font-size="14.00">{orange}</text>
</g>
<!-- 2&#45;&gt;0 -->
<g id="edge12" class="edge">
<title>2&#45;&gt;0</title>
<path fill="none" stroke="black" d="M168.96,-110.98C144.89,-108.47 111.06,-100.62 94.19,-77 74.08,-48.83 127.56,-34.09 164.47,-27.48"/>
<polygon fill="black" stroke="black" points="165.08,-30.93 174.37,-25.83 163.93,-24.02 165.08,-30.93"/>
<text text-anchor="middle" x="186.19" y="-65.8" font-family="Times,serif" font-size="14.00">{bad_beep, gold, orange}</text>
</g>
<!-- 2&#45;&gt;0 -->
<g id="edge13" class="edge">
<title>2&#45;&gt;0</title>
<path fill="none" stroke="black" d="M222.49,-108.44C241.5,-104.35 265.91,-95.6 278.19,-77 293.4,-53.97 256.57,-38.47 227.44,-30.19"/>
<polygon fill="black" stroke="black" points="228.12,-26.75 217.56,-27.56 226.32,-33.51 228.12,-26.75"/>
<text text-anchor="middle" x="353.69" y="-65.8" font-family="Times,serif" font-size="14.00">{bad_beep, orange}</text>
</g>
<!-- 2&#45;&gt;0 -->
<g id="edge14" class="edge">
<title>2&#45;&gt;0</title>
<path fill="none" stroke="black" d="M223.54,-112.16C279.45,-111.86 403.78,-107.65 430.19,-77 434.54,-71.95 434.5,-67.09 430.19,-62 404.69,-31.9 286.31,-25.01 228.35,-23.45"/>
<polygon fill="black" stroke="black" points="228.34,-19.95 218.26,-23.21 228.18,-26.94 228.34,-19.95"/>
<text text-anchor="middle" x="487.19" y="-65.8" font-family="Times,serif" font-size="14.00">{gold, orange}</text>
</g>
<!-- 2&#45;&gt;2 -->
<g id="edge10" class="edge">
<title>2&#45;&gt;2</title>
<path fill="none" stroke="black" d="M222.99,-116.93C232.97,-117.06 241.19,-115.75 241.19,-113 241.19,-111.28 237.98,-110.13 233.14,-109.53"/>
<polygon fill="black" stroke="black" points="233.14,-106.03 222.99,-109.07 232.82,-113.02 233.14,-106.03"/>
<text text-anchor="middle" x="250.69" y="-109.3" font-family="Times,serif" font-size="14.00">{}</text>
</g>
<!-- 2&#45;&gt;2 -->
<g id="edge15" class="edge">
<title>2&#45;&gt;2</title>
<path fill="none" stroke="black" d="M221.34,-119.9C240.55,-122.4 260.19,-120.1 260.19,-113 260.19,-107.18 246.98,-104.59 231.62,-105.22"/>
<polygon fill="black" stroke="black" points="231.01,-101.76 221.34,-106.1 231.6,-108.73 231.01,-101.76"/>
<text text-anchor="middle" x="303.19" y="-109.3" font-family="Times,serif" font-size="14.00">{bad_beep}</text>
</g>
<!-- 3&#45;&gt;2 -->
<g id="edge17" class="edge">
<title>3&#45;&gt;2</title>
<path fill="none" stroke="black" d="M169.42,-197.62C125.33,-194.74 40.49,-186.35 22.19,-164 -15.46,-118.02 97.41,-112.69 159,-113.04"/>
<polygon fill="black" stroke="black" points="159.1,-116.54 169.14,-113.15 159.18,-109.54 159.1,-116.54"/>
<text text-anchor="middle" x="46.69" y="-152.8" font-family="Times,serif" font-size="14.00">{gold}</text>
</g>
<!-- 3&#45;&gt;2 -->
<g id="edge18" class="edge">
<title>3&#45;&gt;2</title>
<path fill="none" stroke="black" d="M168.96,-197.98C144.89,-195.47 111.06,-187.62 94.19,-164 75.23,-137.45 123.38,-124.33 159.82,-118.38"/>
<polygon fill="black" stroke="black" points="160.35,-121.83 169.72,-116.88 159.31,-114.91 160.35,-121.83"/>
<text text-anchor="middle" x="186.19" y="-152.8" font-family="Times,serif" font-size="14.00">{bad_beep, gold, orange}</text>
</g>
<!-- 3&#45;&gt;2 -->
<g id="edge19" class="edge">
<title>3&#45;&gt;2</title>
<path fill="none" stroke="black" d="M222.49,-195.44C241.5,-191.35 265.91,-182.6 278.19,-164 292.27,-142.69 260.14,-128.98 232.06,-121.4"/>
<polygon fill="black" stroke="black" points="232.54,-117.92 221.99,-118.89 230.84,-124.71 232.54,-117.92"/>
<text text-anchor="middle" x="344.19" y="-152.8" font-family="Times,serif" font-size="14.00">{bad_beep, gold}</text>
</g>
<!-- 3&#45;&gt;2 -->
<g id="edge20" class="edge">
<title>3&#45;&gt;2</title>
<path fill="none" stroke="black" d="M223.33,-198.76C275.64,-197.66 387.37,-192.02 411.19,-164 415.51,-158.92 415.51,-154.08 411.19,-149 388.81,-122.68 288.84,-116.1 233.45,-114.49"/>
<polygon fill="black" stroke="black" points="233.41,-110.99 223.33,-114.24 233.24,-117.99 233.41,-110.99"/>
<text text-anchor="middle" x="468.19" y="-152.8" font-family="Times,serif" font-size="14.00">{gold, orange}</text>
</g>
<!-- 3&#45;&gt;3 -->
<g id="edge16" class="edge">
<title>3&#45;&gt;3</title>
<path fill="none" stroke="black" d="M222.99,-203.37C232.97,-203.48 241.19,-202.36 241.19,-200 241.19,-198.53 237.98,-197.54 233.14,-197.03"/>
<polygon fill="black" stroke="black" points="233.12,-193.53 222.99,-196.63 232.84,-200.52 233.12,-193.53"/>
<text text-anchor="middle" x="284.19" y="-196.3" font-family="Times,serif" font-size="14.00">{bad_beep}</text>
</g>
<!-- 3&#45;&gt;3 -->
<g id="edge21" class="edge">
<title>3&#45;&gt;3</title>
<path fill="none" stroke="black" d="M222.46,-204.79C262.05,-208.52 327.19,-206.93 327.19,-200 327.19,-193.64 272.3,-191.78 232.67,-194.4"/>
<polygon fill="black" stroke="black" points="232.15,-190.93 222.46,-195.21 232.7,-197.91 232.15,-190.93"/>
<text text-anchor="middle" x="336.69" y="-196.3" font-family="Times,serif" font-size="14.00">{}</text>
</g>
</g>
</svg>
