<?xml version="1.0" encoding="UTF-8" standalone="no"?>
<!DOCTYPE svg PUBLIC "-//W3C//DTD SVG 1.1//EN"
 "http://www.w3.org/Graphics/SVG/1.1/DTD/svg11.dtd">
<!-- Generated by graphviz version 2.43.0 (0)
 -->
<!-- Title: %3 Pages: 1 -->
<svg width="1174pt" height="299pt"
 viewBox="0.00 0.00 1174.22 299.00" xmlns="http://www.w3.org/2000/svg" xmlns:xlink="http://www.w3.org/1999/xlink">
<g id="graph0" class="graph" transform="scale(1 1) rotate(0) translate(4 295)">
<title>%3</title>
<polygon fill="white" stroke="transparent" points="-4,4 -4,-295 1170.22,-295 1170.22,4 -4,4"/>
<!-- fake -->
<g id="node1" class="node">
<title>fake</title>
</g>
<!-- 3 -->
<g id="node4" class="node">
<title>3</title>
<ellipse fill="none" stroke="black" cx="215.22" cy="-200" rx="27" ry="18"/>
<text text-anchor="middle" x="215.22" y="-196.3" font-family="Times,serif" font-size="14.00">3</text>
</g>
<!-- fake&#45;&gt;3 -->
<g id="edge1" class="edge">
<title>fake&#45;&gt;3</title>
<path fill="none" stroke="black" stroke-width="2" d="M215.22,-254.81C215.22,-246.79 215.22,-237.05 215.22,-228.07"/>
<polygon fill="black" stroke="black" stroke-width="2" points="218.72,-228.03 215.22,-218.03 211.72,-228.03 218.72,-228.03"/>
</g>
<!-- 0 -->
<g id="node2" class="node">
<title>0</title>
<ellipse fill="none" stroke="black" cx="215.22" cy="-22" rx="18" ry="18"/>
<ellipse fill="none" stroke="black" cx="215.22" cy="-22" rx="22" ry="22"/>
<text text-anchor="middle" x="215.22" y="-18.3" font-family="Times,serif" font-size="14.00">0</text>
</g>
<!-- 0&#45;&gt;0 -->
<g id="edge2" class="edge">
<title>0&#45;&gt;0</title>
<path fill="none" stroke="black" d="M237.44,-23.48C247.02,-23.6 255.22,-23.11 255.22,-22 255.22,-21.32 252.18,-20.88 247.63,-20.66"/>
<polygon fill="black" stroke="black" points="247.48,-17.16 237.44,-20.52 247.39,-24.15 247.48,-17.16"/>
<text text-anchor="middle" x="327.72" y="-18.3" font-family="Times,serif" font-size="14.00">{bad_beep, orange}</text>
</g>
<!-- 0&#45;&gt;0 -->
<g id="edge3" class="edge">
<title>0&#45;&gt;0</title>
<path fill="none" stroke="black" d="M237.29,-23.74C287.68,-25.88 400.22,-25.3 400.22,-22 400.22,-18.91 301.31,-18.21 247.42,-19.89"/>
<polygon fill="black" stroke="black" points="247.15,-16.4 237.29,-20.26 247.41,-23.4 247.15,-16.4"/>
<text text-anchor="middle" x="443.22" y="-18.3" font-family="Times,serif" font-size="14.00">{bad_beep}</text>
</g>
<!-- 0&#45;&gt;0 -->
<g id="edge4" class="edge">
<title>0&#45;&gt;0</title>
<path fill="none" stroke="black" d="M237.23,-24.15C303.97,-27.88 486.22,-27.17 486.22,-22 486.22,-17.07 320.65,-16.19 247.35,-19.35"/>
<polygon fill="black" stroke="black" points="247.05,-15.86 237.23,-19.85 247.39,-22.86 247.05,-15.86"/>
<text text-anchor="middle" x="510.72" y="-18.3" font-family="Times,serif" font-size="14.00">{gold}</text>
</g>
<!-- 0&#45;&gt;0 -->
<g id="edge5" class="edge">
<title>0&#45;&gt;0</title>
<path fill="none" stroke="black" d="M237.21,-24.57C312.73,-29.88 535.22,-29.02 535.22,-22 535.22,-15.26 330.61,-14.2 247.22,-18.81"/>
<polygon fill="black" stroke="black" points="246.97,-15.31 237.21,-19.43 247.41,-22.3 246.97,-15.31"/>
<text text-anchor="middle" x="569.22" y="-18.3" font-family="Times,serif" font-size="14.00">{orange}</text>
</g>
<!-- 0&#45;&gt;0 -->
<g id="edge6" class="edge">
<title>0&#45;&gt;0</title>
<path fill="none" stroke="black" d="M237.28,-24.88C323.85,-31.88 603.22,-30.93 603.22,-22 603.22,-13.4 343.67,-12.2 247.4,-18.4"/>
<polygon fill="black" stroke="black" points="247,-14.91 237.28,-19.12 247.5,-21.9 247,-14.91"/>
<text text-anchor="middle" x="695.22" y="-18.3" font-family="Times,serif" font-size="14.00">{bad_beep, gold, orange}</text>
</g>
<!-- 0&#45;&gt;0 -->
<g id="edge7" class="edge">
<title>0&#45;&gt;0</title>
<path fill="none" stroke="black" d="M237.21,-24.89C347.4,-33.91 787.22,-32.95 787.22,-22 787.22,-11.36 371.96,-10.16 247.35,-18.37"/>
<polygon fill="black" stroke="black" points="246.93,-14.89 237.21,-19.11 247.44,-21.87 246.93,-14.89"/>
<text text-anchor="middle" x="796.72" y="-18.3" font-family="Times,serif" font-size="14.00">{}</text>
</g>
<!-- 0&#45;&gt;0 -->
<g id="edge8" class="edge">
<title>0&#45;&gt;0</title>
<path fill="none" stroke="black" d="M237.09,-25.2C350.75,-35.9 806.22,-34.84 806.22,-22 806.22,-9.51 375.32,-8.16 247.17,-17.95"/>
<polygon fill="black" stroke="black" points="246.76,-14.47 237.09,-18.8 247.35,-21.45 246.76,-14.47"/>
<text text-anchor="middle" x="860.22" y="-18.3" font-family="Times,serif" font-size="14.00">{gold, orange}</text>
</g>
<!-- 0&#45;&gt;0 -->
<g id="edge9" class="edge">
<title>0&#45;&gt;0</title>
<path fill="none" stroke="black" d="M237.16,-25.34C363.72,-37.91 914.22,-36.8 914.22,-22 914.22,-7.56 390.27,-6.15 247.17,-17.77"/>
<polygon fill="black" stroke="black" points="246.81,-14.28 237.16,-18.66 247.43,-21.26 246.81,-14.28"/>
<text text-anchor="middle" x="977.22" y="-18.3" font-family="Times,serif" font-size="14.00">{bad_beep, gold}</text>
</g>
<!-- 2 -->
<g id="node3" class="node">
<title>2</title>
<ellipse fill="none" stroke="black" cx="215.22" cy="-113" rx="27" ry="18"/>
<text text-anchor="middle" x="215.22" y="-109.3" font-family="Times,serif" font-size="14.00">2</text>
</g>
<!-- 2&#45;&gt;0 -->
<g id="edge11" class="edge">
<title>2&#45;&gt;0</title>
<path fill="none" stroke="black" d="M188.06,-111.69C136.31,-110.46 26.63,-104.59 3.22,-77 -1.09,-71.92 -1.04,-67.12 3.22,-62 25.73,-34.97 129.48,-26.61 183.03,-24.07"/>
<polygon fill="black" stroke="black" points="183.2,-27.57 193.04,-23.64 182.89,-20.58 183.2,-27.57"/>
<text text-anchor="middle" x="75.72" y="-65.8" font-family="Times,serif" font-size="14.00">{bad_beep, orange}</text>
</g>
<!-- 2&#45;&gt;0 -->
<g id="edge13" class="edge">
<title>2&#45;&gt;0</title>
<path fill="none" stroke="black" d="M194.59,-101.14C180,-91.88 164.2,-77.61 171.22,-62 174.96,-53.7 181.42,-46.46 188.27,-40.53"/>
<polygon fill="black" stroke="black" points="190.63,-43.13 196.33,-34.21 186.31,-37.62 190.63,-43.13"/>
<text text-anchor="middle" x="205.22" y="-65.8" font-family="Times,serif" font-size="14.00">{orange}</text>
</g>
<!-- 2&#45;&gt;0 -->
<g id="edge14" class="edge">
<title>2&#45;&gt;0</title>
<path fill="none" stroke="black" d="M228.41,-97.03C232.74,-91.19 237,-84.18 239.22,-77 242.28,-67.15 239.23,-56.71 234.41,-47.67"/>
<polygon fill="black" stroke="black" points="237.39,-45.82 229.15,-39.16 231.43,-49.5 237.39,-45.82"/>
<text text-anchor="middle" x="332.22" y="-65.8" font-family="Times,serif" font-size="14.00">{bad_beep, gold, orange}</text>
</g>
<!-- 2&#45;&gt;0 -->
<g id="edge15" class="edge">
<title>2&#45;&gt;0</title>
<path fill="none" stroke="black" d="M242.51,-111.71C294.51,-110.52 404.7,-104.71 428.22,-77 432.54,-71.92 432.49,-67.12 428.22,-62 405.6,-34.86 301.37,-26.55 247.56,-24.05"/>
<polygon fill="black" stroke="black" points="247.65,-20.55 237.51,-23.62 247.36,-27.54 247.65,-20.55"/>
<text text-anchor="middle" x="485.22" y="-65.8" font-family="Times,serif" font-size="14.00">{gold, orange}</text>
</g>
<!-- 2&#45;&gt;2 -->
<g id="edge10" class="edge">
<title>2&#45;&gt;2</title>
<path fill="none" stroke="black" d="M242.02,-116.93C252,-117.06 260.22,-115.75 260.22,-113 260.22,-111.28 257.01,-110.13 252.17,-109.53"/>
<polygon fill="black" stroke="black" points="252.17,-106.03 242.02,-109.07 251.85,-113.02 252.17,-106.03"/>
<text text-anchor="middle" x="303.22" y="-109.3" font-family="Times,serif" font-size="14.00">{bad_beep}</text>
</g>
<!-- 2&#45;&gt;2 -->
<g id="edge12" class="edge">
<title>2&#45;&gt;2</title>
<path fill="none" stroke="black" d="M241.19,-118.55C280.75,-122.95 346.22,-121.1 346.22,-113 346.22,-105.55 290.82,-103.38 251.14,-106.51"/>
<polygon fill="black" stroke="black" points="250.82,-103.03 241.19,-107.45 251.47,-109.99 250.82,-103.03"/>
<text text-anchor="middle" x="355.72" y="-109.3" font-family="Times,serif" font-size="14.00">{}</text>
</g>
<!-- 3&#45;&gt;2 -->
<g id="edge16" class="edge">
<title>3&#45;&gt;2</title>
<path fill="none" stroke="black" d="M188.45,-197.62C144.36,-194.74 59.53,-186.35 41.22,-164 3.57,-118.02 116.44,-112.69 178.03,-113.04"/>
<polygon fill="black" stroke="black" points="178.13,-116.54 188.17,-113.15 178.21,-109.54 178.13,-116.54"/>
<text text-anchor="middle" x="65.72" y="-152.8" font-family="Times,serif" font-size="14.00">{gold}</text>
</g>
<!-- 3&#45;&gt;2 -->
<g id="edge18" class="edge">
<title>3&#45;&gt;2</title>
<path fill="none" stroke="black" d="M188,-197.98C163.92,-195.47 130.09,-187.62 113.22,-164 94.26,-137.45 142.41,-124.33 178.85,-118.38"/>
<polygon fill="black" stroke="black" points="179.38,-121.83 188.75,-116.88 178.34,-114.91 179.38,-121.83"/>
<text text-anchor="middle" x="205.22" y="-152.8" font-family="Times,serif" font-size="14.00">{bad_beep, gold, orange}</text>
</g>
<!-- 3&#45;&gt;2 -->
<g id="edge19" class="edge">
<title>3&#45;&gt;2</title>
<path fill="none" stroke="black" d="M241.52,-195.44C260.53,-191.35 284.94,-182.6 297.22,-164 311.3,-142.69 279.17,-128.98 251.09,-121.4"/>
<polygon fill="black" stroke="black" points="251.57,-117.92 241.02,-118.89 249.87,-124.71 251.57,-117.92"/>
<text text-anchor="middle" x="354.22" y="-152.8" font-family="Times,serif" font-size="14.00">{gold, orange}</text>
</g>
<!-- 3&#45;&gt;2 -->
<g id="edge20" class="edge">
<title>3&#45;&gt;2</title>
<path fill="none" stroke="black" d="M242.37,-198.31C291.22,-196.43 390.86,-189.49 412.22,-164 416.51,-158.89 416.51,-154.11 412.22,-149 392.24,-125.15 303.74,-117.54 252.41,-115.12"/>
<polygon fill="black" stroke="black" points="252.51,-111.62 242.37,-114.69 252.21,-118.62 252.51,-111.62"/>
<text text-anchor="middle" x="478.22" y="-152.8" font-family="Times,serif" font-size="14.00">{bad_beep, gold}</text>
</g>
<!-- 3&#45;&gt;3 -->
<g id="edge17" class="edge">
<title>3&#45;&gt;3</title>
<path fill="none" stroke="black" d="M242.02,-203.37C252,-203.48 260.22,-202.36 260.22,-200 260.22,-198.53 257.01,-197.54 252.17,-197.03"/>
<polygon fill="black" stroke="black" points="252.15,-193.53 242.02,-196.63 251.87,-200.52 252.15,-193.53"/>
<text text-anchor="middle" x="303.22" y="-196.3" font-family="Times,serif" font-size="14.00">{bad_beep}</text>
</g>
<!-- 3&#45;&gt;3 -->
<g id="edge21" class="edge">
<title>3&#45;&gt;3</title>
<path fill="none" stroke="black" d="M241.49,-204.79C281.08,-208.52 346.22,-206.93 346.22,-200 346.22,-193.64 291.33,-191.78 251.7,-194.4"/>
<polygon fill="black" stroke="black" points="251.18,-190.93 241.49,-195.21 251.73,-197.91 251.18,-190.93"/>
<text text-anchor="middle" x="355.72" y="-196.3" font-family="Times,serif" font-size="14.00">{}</text>
</g>
</g>
</svg>
